<svg width="50" height="50" viewBox="0 0 50 50" fill="none" xmlns="http://www.w3.org/2000/svg">
<path fill-rule="evenodd" clip-rule="evenodd" d="M42.5121 7.26706C37.834 2.58335 31.6129 0.00275999 24.9862 0C11.3298 0 0.212519 11.1145 0.206999 24.7764C0.206999 29.1427 1.34688 33.4042 3.51347 37.1633L0 50L13.1348 46.5528C16.7559 48.5262 20.8297 49.5667 24.9752 49.5694H24.9862C38.6399 49.5694 49.7571 38.455 49.7626 24.793C49.7626 18.1745 47.1903 11.9508 42.5121 7.26706ZM24.9862 45.3881H24.9779C21.2823 45.3853 17.6584 44.3945 14.4955 42.5149L13.7448 42.0678L5.95054 44.1129L8.02881 36.5147L7.5403 35.7364C5.47858 32.4575 4.39115 28.668 4.39115 24.7764C4.39667 13.4218 13.6344 4.18415 24.9945 4.18415C30.4951 4.18691 35.6646 6.33142 39.5534 10.223C43.4395 14.1174 45.5813 19.2896 45.5785 24.793C45.573 36.1476 36.3353 45.3881 24.9862 45.3881ZM36.2828 29.9625C35.6618 29.6506 32.6203 28.1547 32.0518 27.9477C31.486 27.7407 31.0747 27.6386 30.6607 28.2568C30.2467 28.875 29.0599 30.2688 28.6984 30.6828C28.3368 31.0968 27.9753 31.1465 27.357 30.8374C26.7388 30.5283 24.7433 29.8741 22.378 27.7655C20.5371 26.1233 19.2951 24.0975 18.9335 23.4765C18.572 22.8555 18.8949 22.5215 19.2068 22.2124C19.4855 21.9364 19.825 21.4893 20.1341 21.1277C20.4433 20.7662 20.5454 20.5095 20.7524 20.0955C20.9594 19.6815 20.8573 19.3199 20.6999 19.0108C20.5454 18.6989 19.3061 15.6519 18.79 14.4127C18.2905 13.2121 17.7799 13.3722 17.399 13.3556C17.0402 13.339 16.6262 13.3335 16.2149 13.3335C15.801 13.3335 15.1303 13.4881 14.5617 14.1063C13.9932 14.7273 12.3951 16.2232 12.3951 19.2703C12.3951 22.3173 14.6142 25.2622 14.9233 25.6762C15.2324 26.0902 19.2896 32.3416 25.4996 35.0243C26.9789 35.6618 28.1326 36.0427 29.0296 36.3298C30.5117 36.8017 31.8613 36.7327 32.9295 36.5754C34.119 36.3988 36.592 35.0795 37.1081 33.6333C37.6242 32.187 37.6242 30.9478 37.4696 30.6883C37.3151 30.4289 36.8983 30.2716 36.2828 29.9625Z" fill="#F2DD82"/>
</svg>
