<svg width="23" height="21" viewBox="0 0 23 21" fill="none" xmlns="http://www.w3.org/2000/svg">
<path d="M22.1777 10.5C22.1771 7.7154 21.0087 5.045 18.9292 3.07599C16.8498 1.10698 14.0296 0.000556753 11.0889 0V2.1C12.8432 2.10038 14.5581 2.59312 16.0169 3.51596C17.4756 4.43881 18.6128 5.75036 19.2846 7.2849C19.7306 8.30421 19.96 9.39671 19.96 10.5H22.1777ZM0 8.4V3.15C0 2.87152 0.116829 2.60445 0.324785 2.40754C0.532742 2.21062 0.814792 2.1 1.10889 2.1H6.65332C6.94742 2.1 7.22946 2.21062 7.43742 2.40754C7.64538 2.60445 7.76221 2.87152 7.76221 3.15V7.35C7.76221 7.62848 7.64538 7.89555 7.43742 8.09246C7.22946 8.28937 6.94742 8.4 6.65332 8.4H4.43555C4.43555 10.6278 5.37018 12.7644 7.03383 14.3397C8.69748 15.915 10.9539 16.8 13.3066 16.8V14.7C13.3066 14.4215 13.4235 14.1545 13.6314 13.9575C13.8394 13.7606 14.1214 13.65 14.4155 13.65H18.8511C19.1452 13.65 19.4272 13.7606 19.6352 13.9575C19.8431 14.1545 19.96 14.4215 19.96 14.7V19.95C19.96 20.2285 19.8431 20.4955 19.6352 20.6925C19.4272 20.8894 19.1452 21 18.8511 21H13.3066C5.95805 21 0 15.3583 0 8.4Z" fill="#F2DD82"/>
<path d="M17.2354 8.0894C17.5702 8.85361 17.7424 9.67286 17.7422 10.5002H15.7462C15.7463 9.92103 15.626 9.34751 15.392 8.8124C15.158 8.27729 14.8149 7.79108 14.3824 7.38155C13.9499 6.97201 13.4364 6.64718 12.8713 6.42561C12.3062 6.20403 11.7005 6.09006 11.0889 6.0902V4.2002C12.4047 4.20026 13.691 4.56979 14.7851 5.26206C15.8792 5.95433 16.7319 6.93825 17.2354 8.0894Z" fill="#F2DD82"/>
</svg>
