<svg width="23" height="21" viewBox="0 0 23 21" fill="none" xmlns="http://www.w3.org/2000/svg">
<path d="M22.2666 10.5C22.266 7.7154 21.0975 5.045 19.0181 3.07599C16.9387 1.10698 14.1185 0.000556753 11.1777 0V2.1C12.9321 2.10038 14.647 2.59312 16.1057 3.51596C17.5645 4.43881 18.7016 5.75036 19.3735 7.2849C19.8194 8.30421 20.0489 9.39671 20.0488 10.5H22.2666ZM0.0888672 8.4V3.15C0.0888672 2.87152 0.205696 2.60445 0.413653 2.40754C0.621609 2.21062 0.903659 2.1 1.19775 2.1H6.74219C7.03628 2.1 7.31833 2.21062 7.52629 2.40754C7.73425 2.60445 7.85107 2.87152 7.85107 3.15V7.35C7.85107 7.62848 7.73425 7.89555 7.52629 8.09246C7.31833 8.28937 7.03628 8.4 6.74219 8.4H4.52441C4.52441 10.6278 5.45904 12.7644 7.1227 14.3397C8.78635 15.915 11.0427 16.8 13.3955 16.8V14.7C13.3955 14.4215 13.5123 14.1545 13.7203 13.9575C13.9283 13.7606 14.2103 13.65 14.5044 13.65H18.9399C19.234 13.65 19.5161 13.7606 19.724 13.9575C19.932 14.1545 20.0488 14.4215 20.0488 14.7V19.95C20.0488 20.2285 19.932 20.4955 19.724 20.6925C19.5161 20.8894 19.234 21 18.9399 21H13.3955C6.04692 21 0.0888672 15.3583 0.0888672 8.4Z" fill="#1F673C"/>
<path d="M17.3243 8.08921C17.659 8.85343 17.8312 9.67267 17.8311 10.5H15.8351C15.8352 9.92084 15.7148 9.34732 15.4808 8.81222C15.2468 8.27711 14.9038 7.7909 14.4713 7.38136C14.0388 6.97183 13.5253 6.647 12.9602 6.42542C12.3951 6.20385 11.7894 6.08987 11.1777 6.09001V4.20001C12.4936 4.20008 13.7799 4.56961 14.874 5.26188C15.968 5.95415 16.8208 6.93806 17.3243 8.08921Z" fill="#1F673C"/>
</svg>
