<svg width="104" height="79" viewBox="0 0 104 79" fill="none" xmlns="http://www.w3.org/2000/svg">
<path d="M24.88 0.0724487H38.2279L40.6678 0.197775V0.323101L37.0797 0.573754L32.0563 1.32571L27.4634 2.32832L23.1576 3.45626L21.2918 3.95756H21.0048L21.1483 3.58158L23.0141 2.45365L25.4541 1.32571L26.4587 0.949732L18.2778 1.95234H16.5555V3.2056L15.8378 3.83224L14.1155 5.46148L12.5367 7.21604L10.8144 9.34659L9.23564 11.6025L8.23095 13.1064L6.65217 15.9889L5.21691 19.2474L4.0687 22.6312L3.20755 26.2656L2.77697 29.3988L2.63344 31.028V35.5398L2.9205 38.5476L3.63813 42.3074L4.49928 45.3152L5.79101 48.699L7.08275 51.3309L8.37448 53.7121L10.2403 56.4692L11.8191 58.4745L13.6849 60.605L15.4073 62.3596L19.1389 65.6181L20.7177 66.746L22.8706 68.2499L26.1717 70.1298L27.894 71.0071L30.1904 72.0097L33.7786 73.3883L36.5056 74.2656L40.5243 75.2682L43.9689 75.8948L49.4229 76.3961H54.3028L57.8909 76.1455L61.7661 75.6442L64.3496 75.1429L67.2201 74.3909L68.3683 74.0149H69.2295L70.0906 73.7643V73.5136L72.5306 72.6363L74.9705 71.6337L78.4151 69.8792L81.1421 68.2499L83.4385 66.746L85.3044 65.2421L86.4526 64.3648L88.4619 62.6102L89.4666 61.6076L91.0454 59.9784L92.9112 57.7225L94.6336 55.3413L96.0688 53.0854L97.6476 50.2029L99.0829 46.8191L100.088 43.686L100.805 40.8035L101.379 36.9184L101.523 34.7878V31.78L101.236 28.2708L100.518 24.3857L99.5134 20.8766L98.0782 17.2421L96.2123 13.6077L94.3465 10.7252L92.6242 8.46931L91.0454 6.58941L89.4666 4.96017L87.8878 3.45626L87.4573 1.57636L87.6008 1.07506L90.4713 3.58158L91.763 4.96017L93.1983 6.46409L94.7771 8.46931L95.7818 9.84789L96.93 11.6025L98.3652 13.9837L99.2264 15.7382L99.944 17.2421L101.092 20.25L102.24 24.0098L102.384 25.1377L102.527 25.263L102.815 26.6416L103.102 29.1481L103.245 32.156V35.1638L102.815 39.6755L101.953 43.5606L100.518 47.9471L99.5134 50.0776L98.7958 51.7068L97.6476 53.8374L96.4994 55.592L94.9206 57.8478L93.7724 59.2264L92.4807 60.7303L91.3325 61.9836L90.0407 63.2369L89.036 64.2395H88.749L88.4619 64.7408L87.8878 65.2421H87.6008L87.3137 65.7434L85.5914 67.122L83.5821 68.5006L82.1468 69.5032L80.281 70.6311L77.2669 72.2603L72.9611 74.1402L71.3824 74.7669L69.2295 75.3935L67.7942 75.8948L64.3496 76.7721L61.3355 77.2734L57.7474 77.7747L53.011 78.0254H51.0017L46.2653 77.7747L44.1124 77.5241L42.6772 77.2734L39.3761 76.6468L36.362 75.8948L32.0563 74.5162L29.4728 73.5136L26.3152 72.0097L24.3059 70.8818L22.7271 70.0045L21.0048 68.8765L19.5695 67.8739L18.1342 66.746L16.5555 65.6181L16.4119 65.2421L15.8378 64.9914L13.8285 63.1115L12.1062 61.357L10.6709 59.7277L8.80506 57.3465L7.22627 54.9653L6.36512 53.7121L5.79101 52.5841L4.78633 50.5789L4.0687 49.075L2.9205 46.0672L2.05934 43.1847L1.19818 39.0489L0.911133 36.4171V30.5267L1.19818 27.5189L1.62876 25.5137L1.77229 24.3857L2.34639 22.3805L3.4946 18.8714L4.21223 17.2421L4.49928 16.4902L5.07338 15.3622L6.22159 13.2317L7.65685 10.8505L9.37916 8.46931L11.245 6.21343L12.5367 4.83484L14.1155 3.2056L15.8378 1.70169L15.6943 0.323101L15.9814 0.197775L16.2684 0.323101H18.2778L24.88 0.0724487Z" fill="#F6C352"/>
</svg>
