<svg width="9" height="14" viewBox="0 0 9 14" fill="none" xmlns="http://www.w3.org/2000/svg">
<path fill-rule="evenodd" clip-rule="evenodd" d="M8.28831 6.11763C8.4758 6.3051 8.58113 6.55933 8.58113 6.82441C8.58113 7.0895 8.4758 7.34373 8.28831 7.5312L2.63063 13.1865C2.53837 13.282 2.42801 13.3581 2.30599 13.4105C2.18398 13.4629 2.05274 13.4905 1.91994 13.4917C1.78715 13.4928 1.65545 13.4675 1.53254 13.4173C1.40963 13.367 1.29797 13.2928 1.20406 13.1989C1.11016 13.105 1.0359 12.9934 0.985608 12.8706C0.935321 12.7477 0.910017 12.6161 0.911171 12.4833C0.912325 12.3506 0.939914 12.2194 0.992329 12.0974C1.04474 11.9755 1.12094 11.8651 1.21646 11.7729L6.16706 6.82441L1.21646 1.8759C1.03428 1.68735 0.933471 1.43483 0.93575 1.17271C0.938028 0.910594 1.04321 0.659857 1.22864 0.474504C1.41407 0.289152 1.66491 0.184014 1.92714 0.181736C2.18937 0.179458 2.442 0.280222 2.63063 0.462326L8.28831 6.11763Z" fill="#1F673C"/>
</svg>
