<svg width="51" height="50" viewBox="0 0 51 50" fill="none" xmlns="http://www.w3.org/2000/svg">
<path d="M45.2071 0C46.6806 0 48.0936 0.585316 49.1355 1.62718C50.1774 2.66905 50.7627 4.08213 50.7627 5.55556V44.4444C50.7627 45.9179 50.1774 47.3309 49.1355 48.3728C48.0936 49.4147 46.6806 50 45.2071 50H6.31825C4.84483 50 3.43175 49.4147 2.38988 48.3728C1.34801 47.3309 0.762695 45.9179 0.762695 44.4444V5.55556C0.762695 4.08213 1.34801 2.66905 2.38988 1.62718C3.43175 0.585316 4.84483 0 6.31825 0H45.2071ZM43.8182 43.0556V28.3333C43.8182 25.9316 42.8642 23.6283 41.1659 21.9301C39.4677 20.2318 37.1644 19.2778 34.7627 19.2778C32.4016 19.2778 29.6516 20.7222 28.3183 22.8889V19.8056H20.5683V43.0556H28.3183V29.3611C28.3183 27.2222 30.0405 25.4722 32.1794 25.4722C33.2108 25.4722 34.1999 25.8819 34.9292 26.6113C35.6585 27.3406 36.0682 28.3297 36.0682 29.3611V43.0556H43.8182ZM11.5405 15.4444C12.7781 15.4444 13.9651 14.9528 14.8403 14.0776C15.7155 13.2024 16.2071 12.0155 16.2071 10.7778C16.2071 8.19444 14.1238 6.08333 11.5405 6.08333C10.2954 6.08333 9.10138 6.57792 8.221 7.4583C7.34062 8.33868 6.84603 9.53273 6.84603 10.7778C6.84603 13.3611 8.95714 15.4444 11.5405 15.4444ZM15.4016 43.0556V19.8056H7.70714V43.0556H15.4016Z" fill="#F2DD82"/>
</svg>
