<svg width="51" height="50" viewBox="0 0 51 50" fill="none" xmlns="http://www.w3.org/2000/svg">
<path d="M15.2627 0H36.2627C44.2627 0 50.7627 6.5 50.7627 14.5V35.5C50.7627 39.3456 49.235 43.0338 46.5157 45.753C43.7965 48.4723 40.1083 50 36.2627 50H15.2627C7.2627 50 0.762695 43.5 0.762695 35.5V14.5C0.762695 10.6544 2.29037 6.96623 5.00965 4.24695C7.72892 1.52767 11.4171 0 15.2627 0ZM14.7627 5C12.3757 5 10.0866 5.94821 8.39873 7.63604C6.71091 9.32387 5.7627 11.6131 5.7627 14V36C5.7627 40.975 9.7877 45 14.7627 45H36.7627C39.1496 45 41.4388 44.0518 43.1267 42.364C44.8145 40.6761 45.7627 38.3869 45.7627 36V14C45.7627 9.025 41.7377 5 36.7627 5H14.7627ZM38.8877 8.75C39.7165 8.75 40.5114 9.07924 41.0974 9.66529C41.6835 10.2513 42.0127 11.0462 42.0127 11.875C42.0127 12.7038 41.6835 13.4987 41.0974 14.0847C40.5114 14.6708 39.7165 15 38.8877 15C38.0589 15 37.264 14.6708 36.678 14.0847C36.0919 13.4987 35.7627 12.7038 35.7627 11.875C35.7627 11.0462 36.0919 10.2513 36.678 9.66529C37.264 9.07924 38.0589 8.75 38.8877 8.75ZM25.7627 12.5C29.0779 12.5 32.2573 13.817 34.6015 16.1612C36.9457 18.5054 38.2627 21.6848 38.2627 25C38.2627 28.3152 36.9457 31.4946 34.6015 33.8388C32.2573 36.183 29.0779 37.5 25.7627 37.5C22.4475 37.5 19.2681 36.183 16.9239 33.8388C14.5797 31.4946 13.2627 28.3152 13.2627 25C13.2627 21.6848 14.5797 18.5054 16.9239 16.1612C19.2681 13.817 22.4475 12.5 25.7627 12.5ZM25.7627 17.5C23.7736 17.5 21.8659 18.2902 20.4594 19.6967C19.0529 21.1032 18.2627 23.0109 18.2627 25C18.2627 26.9891 19.0529 28.8968 20.4594 30.3033C21.8659 31.7098 23.7736 32.5 25.7627 32.5C27.7518 32.5 29.6595 31.7098 31.066 30.3033C32.4725 28.8968 33.2627 26.9891 33.2627 25C33.2627 23.0109 32.4725 21.1032 31.066 19.6967C29.6595 18.2902 27.7518 17.5 25.7627 17.5Z" fill="#F2DD82"/>
</svg>
