<svg width="50" height="50" viewBox="0 0 50 50" fill="none" xmlns="http://www.w3.org/2000/svg">
<path d="M23.6948 36.7469C26.5958 36.7469 29.0609 35.7314 31.0901 33.7005C33.121 31.6714 34.1365 29.2063 34.1365 26.3052V15.8635H23.6948C20.7937 15.8635 18.3286 16.879 16.2995 18.9099C14.2686 20.9391 13.2531 23.4042 13.2531 26.3052C13.2531 27.506 13.4219 28.6616 13.7595 29.7719C14.0971 30.8821 14.654 31.8819 15.4302 32.7712L13.6342 34.5202C13.3558 34.7969 13.2166 35.1041 13.2166 35.4417C13.2166 35.7793 13.3558 36.0873 13.6342 36.3658C13.9127 36.6442 14.2207 36.7834 14.5583 36.7834C14.8959 36.7834 15.204 36.6442 15.4824 36.3658L17.2288 34.5698C18.1511 35.3112 19.1692 35.8594 20.283 36.2144C21.3933 36.5694 22.5305 36.7469 23.6948 36.7469ZM23.6948 34.1365C22.8682 34.1365 22.0668 34.026 21.2906 33.805C20.5144 33.5839 19.7966 33.2246 19.137 32.7268L25.9241 25.9241C26.2025 25.6456 26.3418 25.3376 26.3418 25C26.3418 24.6624 26.2025 24.3544 25.9241 24.0759C25.6456 23.7975 25.3376 23.6582 25 23.6582C24.6624 23.6582 24.3544 23.7975 24.0759 24.0759L17.2732 30.863C16.7754 30.2034 16.4161 29.4856 16.1951 28.7094C15.974 27.9332 15.8635 27.1318 15.8635 26.3052C15.8635 24.1125 16.6205 22.2591 18.1346 20.745C19.6486 19.231 21.502 18.4739 23.6948 18.4739H31.5261V26.3052C31.5261 28.498 30.769 30.3514 29.255 31.8654C27.7409 33.3795 25.8875 34.1365 23.6948 34.1365ZM25 50L17.1583 43.8655L7.33006 42.6699L6.1371 32.8417L0 25L6.13449 17.1583L7.33006 7.33006L17.1583 6.1371L25 0L32.8417 6.13449L42.6699 7.33006L43.8629 17.1583L50 25L43.8655 32.8417L42.6699 42.6699L32.8417 43.8629L25 50ZM25 46.6587L31.7923 41.4039L40.378 40.3127L41.4039 31.7923L46.6561 25L41.4039 18.2077L40.3127 9.68727L31.7923 8.59873L25 3.34395L18.2077 8.59873L9.62201 9.68727L8.59873 18.2077L3.34395 25L8.59873 31.7923L9.68727 40.378L18.2077 41.4039L25 46.6587Z" fill="#1F673C"/>
</svg>
