<svg width="31" height="30" viewBox="0 0 31 30" fill="none" xmlns="http://www.w3.org/2000/svg">
<path d="M9.61113 0H22.2111C27.0111 0 30.9111 3.9 30.9111 8.7V21.3C30.9111 23.6074 29.9945 25.8203 28.363 27.4518C26.7314 29.0834 24.5185 30 22.2111 30H9.61113C4.81113 30 0.911133 26.1 0.911133 21.3V8.7C0.911133 6.39262 1.82774 4.17974 3.4593 2.54817C5.09087 0.916605 7.30375 0 9.61113 0ZM9.31113 3C7.87896 3 6.50545 3.56893 5.49276 4.58162C4.48006 5.59432 3.91113 6.96783 3.91113 8.4V21.6C3.91113 24.585 6.32613 27 9.31113 27H22.5111C23.9433 27 25.3168 26.4311 26.3295 25.4184C27.3422 24.4057 27.9111 23.0322 27.9111 21.6V8.4C27.9111 5.415 25.4961 3 22.5111 3H9.31113ZM23.7861 5.25C24.2834 5.25 24.7603 5.44754 25.112 5.79917C25.4636 6.15081 25.6611 6.62772 25.6611 7.125C25.6611 7.62228 25.4636 8.09919 25.112 8.45083C24.7603 8.80246 24.2834 9 23.7861 9C23.2889 9 22.8119 8.80246 22.4603 8.45083C22.1087 8.09919 21.9111 7.62228 21.9111 7.125C21.9111 6.62772 22.1087 6.15081 22.4603 5.79917C22.8119 5.44754 23.2889 5.25 23.7861 5.25ZM15.9111 7.5C17.9003 7.5 19.8079 8.29018 21.2144 9.6967C22.621 11.1032 23.4111 13.0109 23.4111 15C23.4111 16.9891 22.621 18.8968 21.2144 20.3033C19.8079 21.7098 17.9003 22.5 15.9111 22.5C13.922 22.5 12.0144 21.7098 10.6078 20.3033C9.20131 18.8968 8.41113 16.9891 8.41113 15C8.41113 13.0109 9.20131 11.1032 10.6078 9.6967C12.0144 8.29018 13.922 7.5 15.9111 7.5ZM15.9111 10.5C14.7177 10.5 13.5731 10.9741 12.7292 11.818C11.8852 12.6619 11.4111 13.8065 11.4111 15C11.4111 16.1935 11.8852 17.3381 12.7292 18.182C13.5731 19.0259 14.7177 19.5 15.9111 19.5C17.1046 19.5 18.2492 19.0259 19.0931 18.182C19.937 17.3381 20.4111 16.1935 20.4111 15C20.4111 13.8065 19.937 12.6619 19.0931 11.818C18.2492 10.9741 17.1046 10.5 15.9111 10.5Z" fill="#1F673C"/>
</svg>
