<svg width="40" height="50" viewBox="0 0 40 50" fill="none" xmlns="http://www.w3.org/2000/svg">
<path d="M5.71428 50C4.14286 50 2.79809 49.5553 1.68 48.6659C0.561904 47.7765 0.00190476 46.7061 0 45.4545V4.54545C0 3.29545 0.559999 2.22576 1.68 1.33636C2.8 0.44697 4.14476 0.00151515 5.71428 0H34.2857C35.8571 0 37.2029 0.445455 38.3229 1.33636C39.4429 2.22727 40.0019 3.29697 40 4.54545V45.4545C40 46.7045 39.4409 47.775 38.3229 48.6659C37.2048 49.5568 35.859 50.0015 34.2857 50H5.71428ZM5.71428 38.6364H34.2857V11.3636H5.71428V38.6364ZM20 34.0909L8.57143 25L12.5714 21.8182L17.1429 25.3409V15.9091H22.8571V25.3409L27.4286 21.8182L31.4286 25L20 34.0909Z" fill="#1F673C"/>
</svg>
