<svg width="42" height="9" viewBox="0 0 42 9" fill="none" xmlns="http://www.w3.org/2000/svg">
<path d="M15.2656 0.263428H17.562L19.4278 0.764733L20.7195 1.39136L21.4372 1.26604L23.303 0.51408L24.3077 0.263428H26.4606L28.4699 0.639406L30.4793 1.51669L32.2016 2.89528L33.4934 3.89789L34.6416 4.39919L35.2157 4.52452H37.5121L39.0909 4.02321L39.8085 3.52191L40.9567 1.76734L41.6743 1.89267V2.89528L40.6696 4.9005L39.5214 6.15376L37.7991 7.2817L35.9333 7.90833L33.2063 8.28431H30.1923L26.7476 7.90833L24.4512 7.40702L22.4419 6.52974L21.4372 5.77778L21.1501 5.15115H20.8631L20.576 5.77778L19.4278 6.65506L17.1314 7.53235L15.4091 7.90833L11.9645 8.28431H8.23279L5.64933 7.783L3.63996 6.90572L2.2047 5.77778L1.34355 4.9005L0.625919 3.64724L0.338867 2.5193V1.89267L1.0565 1.76734L2.06118 3.27126L2.77881 3.89789L3.92702 4.39919L4.50112 4.52452H6.65401L8.23279 4.02321L9.52453 3.14593L10.8163 2.01799L12.8256 0.890059L14.4044 0.388754L15.2656 0.263428Z" fill="#F2DF85"/>
</svg>
