<svg width="50" height="50" viewBox="0 0 50 50" fill="none" xmlns="http://www.w3.org/2000/svg">
<path d="M2.77778 22.2222C1.99074 22.2222 1.33148 21.9556 0.8 21.4222C0.268519 20.8889 0.00185185 20.2296 0 19.4444V2.77778C0 1.99074 0.266667 1.33148 0.8 0.8C1.33333 0.268519 1.99259 0.00185185 2.77778 0H19.4444C20.2315 0 20.8917 0.266667 21.425 0.8C21.9583 1.33333 22.2241 1.99259 22.2222 2.77778V19.4444C22.2222 20.2315 21.9556 20.8917 21.4222 21.425C20.8889 21.9583 20.2296 22.2241 19.4444 22.2222H2.77778ZM30.5555 22.2222C29.7685 22.2222 29.1093 21.9556 28.5778 21.4222C28.0463 20.8889 27.7796 20.2296 27.7778 19.4444V2.77778C27.7778 1.99074 28.0444 1.33148 28.5778 0.8C29.1111 0.268519 29.7704 0.00185185 30.5555 0H47.2222C48.0092 0 48.6694 0.266667 49.2028 0.8C49.7361 1.33333 50.0018 1.99259 50 2.77778V19.4444C50 20.2315 49.7333 20.8917 49.2 21.425C48.6667 21.9583 48.0074 22.2241 47.2222 22.2222H30.5555ZM2.77778 50C1.99074 50 1.33148 49.7333 0.8 49.2C0.268519 48.6667 0.00185185 48.0074 0 47.2222V30.5555C0 29.7685 0.266667 29.1093 0.8 28.5778C1.33333 28.0463 1.99259 27.7796 2.77778 27.7778H19.4444C20.2315 27.7778 20.8917 28.0444 21.425 28.5778C21.9583 29.1111 22.2241 29.7704 22.2222 30.5555V47.2222C22.2222 48.0092 21.9556 48.6694 21.4222 49.2028C20.8889 49.7361 20.2296 50.0018 19.4444 50H2.77778ZM38.8889 50C38.1018 50 37.4426 49.7333 36.9111 49.2C36.3796 48.6667 36.113 48.0074 36.1111 47.2222V41.6667H30.4861C29.6991 41.6667 29.0509 41.4 28.5417 40.8667C28.0324 40.3333 27.7778 39.6741 27.7778 38.8889C27.7778 38.1037 28.0444 37.4444 28.5778 36.9111C29.1111 36.3778 29.7704 36.1111 30.5555 36.1111H36.1111V30.4861C36.1111 29.6991 36.3778 29.0509 36.9111 28.5417C37.4444 28.0324 38.1037 27.7778 38.8889 27.7778C39.6741 27.7778 40.3342 28.0444 40.8694 28.5778C41.4046 29.1111 41.6704 29.7704 41.6667 30.5555V36.1111H47.2917C48.0787 36.1111 48.7268 36.3778 49.2361 36.9111C49.7454 37.4444 50 38.1037 50 38.8889C50 39.6741 49.7333 40.3342 49.2 40.8694C48.6667 41.4046 48.0074 41.6704 47.2222 41.6667H41.6667V47.2917C41.6667 48.0787 41.4 48.7268 40.8667 49.2361C40.3333 49.7454 39.6741 50 38.8889 50ZM33.3333 5.55555V16.6667H44.4444V5.55555H33.3333ZM5.55555 5.55555V16.6667H16.6667V5.55555H5.55555ZM5.55555 33.3333V44.4444H16.6667V33.3333H5.55555Z" fill="#1F673C"/>
</svg>
