<svg width="19" height="21" viewBox="0 0 19 21" fill="none" xmlns="http://www.w3.org/2000/svg">
<path d="M9.08887 9.975C8.23639 9.975 7.41882 9.69844 6.81602 9.20615C6.21323 8.71387 5.87458 8.04619 5.87458 7.35C5.87458 6.65381 6.21323 5.98613 6.81602 5.49384C7.41882 5.00156 8.23639 4.725 9.08887 4.725C9.94135 4.725 10.7589 5.00156 11.3617 5.49384C11.9645 5.98613 12.3032 6.65381 12.3032 7.35C12.3032 7.69472 12.22 8.03606 12.0585 8.35454C11.8969 8.67302 11.6602 8.9624 11.3617 9.20615C11.0632 9.44991 10.7089 9.64326 10.3189 9.77518C9.92895 9.9071 9.51097 9.975 9.08887 9.975ZM9.08887 0C6.70192 0 4.41273 0.774373 2.72491 2.15276C1.03708 3.53116 0.0888672 5.40066 0.0888672 7.35C0.0888672 12.8625 9.08887 21 9.08887 21C9.08887 21 18.0889 12.8625 18.0889 7.35C18.0889 5.40066 17.1407 3.53116 15.4528 2.15276C13.765 0.774373 11.4758 0 9.08887 0Z" fill="#1F673C"/>
</svg>
