<svg width="100" height="101" viewBox="0 0 100 101" fill="none" xmlns="http://www.w3.org/2000/svg">
<path d="M32.496 0H36.5148L41.2511 0.375979L46.9921 1.12794L50.2932 1.62924L55.7472 2.13055L59.7659 2.75718L63.2106 3.50913L66.0811 4.38642L68.3775 5.38903L70.0998 6.26631L71.3915 7.1436L71.8221 7.39425V7.6449L72.3962 7.89555L73.4009 8.77284L74.2621 9.77545L75.5538 11.53L76.702 13.4099L77.9937 15.9164L78.9984 18.1723L79.429 19.6762L80.7207 20.8042L82.2995 22.5587L83.7348 24.4386L84.883 26.5692L85.6006 28.5744L86.0312 30.4543L87.1794 31.4569L89.7629 34.2141L91.7722 36.7206L93.064 38.6005L94.4992 40.8564L96.2215 44.2402L97.9438 48.7519L98.805 52.0104L99.3791 55.2689L99.6662 58.778V61.7858L99.3791 65.1696L98.6615 69.1801L97.8003 72.1879L96.3651 75.9477L94.7863 79.0809L93.064 81.9634L91.3416 84.3446L89.9064 86.0991L88.7582 87.3524L87.1794 88.9816L85.4571 90.6109L83.5912 92.2401L82.443 93.1174L80.7207 94.3707L78.1373 95.9999L75.6973 97.3785L72.9703 98.7571L68.9516 100.386L68.234 100.261L67.6599 99.7597L67.9469 99.2584L69.3822 97.2532L70.5304 94.9973L70.6739 93.8693L70.0998 92.6161L68.9516 91.3628L68.6646 90.8615L70.0998 88.9816L71.1045 87.1017L71.248 86.6004V85.5978L70.6739 83.9686L69.8128 82.59L68.8081 81.4621L65.3635 78.4542L65.2199 70.9346L64.6458 69.6814L63.7847 68.8041L62.78 68.4281H40.677L39.8158 68.8041L39.0982 69.3054L38.3806 70.5587L38.2371 71.1853L38.0935 78.2036L37.3759 77.5769L36.8018 77.201H35.9406L35.223 78.2036L33.6442 80.8354L32.6396 83.0913L31.2043 85.3472L29.3385 87.8537L28.0467 89.8589L27.042 91.8641L26.4679 93.8693L26.1809 97.1278L26.0374 98.1304L24.6021 97.5038L20.7269 95.2479L18.7175 93.8693L16.5646 92.2401L12.833 88.9816L11.5412 87.603L9.53188 85.3472L7.66604 82.8406L5.8002 79.9581L4.07789 76.6997L2.78616 73.5665L1.92501 70.9346L1.06385 67.3002L0.633272 64.4177L0.489746 62.5378V58.026L0.920324 54.1409L1.49443 51.2584L2.35558 48.2506L3.79084 44.4908L5.08258 41.859L6.51783 39.4778L7.66604 37.7232L8.95777 35.9686L10.8236 33.7128L12.5459 31.9582L13.8377 30.7049L14.2682 30.2036H14.5553L14.4118 28.825H16.2776L24.1715 27.8224L24.7456 27.9477L21.4445 29.3263L19.5787 30.4543L19.0046 30.9556L22.4492 29.953L25.8938 29.0757L30.0561 28.1984L35.0795 27.4464L36.5148 27.3211L36.2277 27.1958H22.8798L16.2776 27.4464H14.2682L13.2636 27.0705L12.6894 26.0679L11.9718 23.5613L11.6848 21.5561V18.7989L11.9718 16.7937L12.5459 15.7911L12.9765 15.5405H13.6941V14.4125L14.1247 12.1566L14.8423 10.2768L15.56 9.65012L16.5646 9.77545L16.7082 8.89816L17.5693 7.1436L18.7175 5.63968L20.0093 4.38642L21.301 3.50913L23.3104 2.75718L25.3197 2.3812L26.6115 2.25587L28.1902 1.12794L29.6255 0.501305L31.3478 0.125326L32.496 0Z" fill="#20663C"/>
</svg>
