<svg width="43" height="37" viewBox="0 0 43 37" fill="none" xmlns="http://www.w3.org/2000/svg">
<path d="M42.0971 0.679504H42.2407L42.0971 1.80744L41.3795 4.43929L40.3748 7.19647L39.5137 9.07636L38.796 10.7056L37.6478 12.8361L36.4996 14.5907L34.9208 16.8466L33.7726 18.2252L32.4809 19.7291L31.3327 20.9824L30.041 22.2356L29.0363 23.2382H28.7492L28.4622 23.7395L27.8881 24.2408H27.601L27.314 24.7421L25.5916 26.1207L23.5823 27.4993L22.147 28.5019L20.2812 29.6299L17.2671 31.2591L12.9614 33.139L11.3826 33.7656L9.22969 34.3923L7.79443 34.8936L4.34981 35.7708L1.33576 36.2722H0.474609L1.04871 36.0215L4.49334 35.3949L4.92391 35.1442L5.78507 35.0189V34.8936L7.50738 34.6429L8.22501 34.5176V34.2669L8.79911 34.3923V34.1416L9.22969 34.0163L9.37322 33.3897L10.5214 33.515L11.2391 33.2643L11.3826 33.0137L12.8178 32.763L13.1049 32.5124H13.8225V32.2617H14.1096V32.0111L13.679 32.1364L12.8178 31.8857L12.5308 31.6351L14.9707 30.6325L18.4154 28.8779L21.1423 27.2487L23.4388 25.7448L25.3046 24.2408L26.4528 23.3636L28.4622 21.609L29.4668 20.6064L31.0456 18.9771L32.9115 16.7213L34.6338 14.3401L36.069 12.0842L37.6478 9.20169L39.0831 5.81788H39.2266V6.69516L38.796 7.32179L38.6525 8.07375L38.3655 8.3244L37.7914 9.57767L37.6478 10.079L37.9349 9.70299L38.3655 9.82832L38.2219 10.455L38.6525 10.079L39.3701 8.3244L39.5137 7.69777L39.6572 7.32179L39.9442 6.94582L40.2313 6.19386H40.5183L40.3748 5.69255L39.9442 5.31657V5.06592H40.2313L40.3748 4.81527L40.6619 5.19125L41.6666 2.18342L41.9536 0.930157L42.0971 0.679504Z" fill="#F2DE84"/>
</svg>
