<svg width="41" height="46" viewBox="0 0 41 46" fill="none" xmlns="http://www.w3.org/2000/svg">
<path d="M24.88 0.0724487H38.2279L40.6678 0.197775V0.323101L37.0797 0.573754L32.0563 1.32571L27.4634 2.32832L23.1576 3.45626L21.2918 3.95756H21.0048L21.1483 3.58158L23.0141 2.45365L25.4541 1.32571L26.4587 0.949732L18.2778 1.95234H16.5555V3.2056L15.8378 3.83224L14.1155 5.46148L12.5367 7.21604L10.8144 9.34659L9.23564 11.6025L8.23095 13.1064L6.65217 15.9889L5.21691 19.2474L4.0687 22.6312L3.20755 26.2656L2.77697 29.3988L2.63344 31.028V35.5398L2.9205 38.5476L3.63813 42.3074L3.92518 43.31L3.78165 43.8113L3.4946 43.0593L2.9205 40.9288L2.77697 40.6781L2.63344 41.1795H2.34639L2.20287 40.4275H2.05934V41.8061L2.63344 44.1873L2.77697 44.3126L3.06402 43.686H3.20755L3.35107 44.9392H3.06402L2.9205 45.5659L2.63344 45.1899L1.77229 41.9314L1.19818 39.0489L0.911133 36.4171V30.5267L1.19818 27.5189L1.62876 25.5137L1.77229 24.3857L2.34639 22.3805L3.4946 18.8714L4.21223 17.2421L4.49928 16.4902L5.07338 15.3622L6.22159 13.2317L7.65685 10.8505L9.37916 8.46931L11.245 6.21343L12.5367 4.83485L14.1155 3.2056L15.8378 1.70169L15.6943 0.323101L15.9814 0.197775L16.2684 0.323101H18.2778L24.88 0.0724487Z" fill="#F6CF66"/>
</svg>
