<svg width="40" height="11" viewBox="0 0 40 11" fill="none" xmlns="http://www.w3.org/2000/svg">
<path d="M5.49598 0H9.5147L14.2511 0.375979L19.9921 1.12794L23.8673 1.75457L26.4508 2.50652L28.7472 2.8825L32.4789 3.63446L35.6364 4.63707L37.3587 5.51435L38.0764 6.01566V6.26631H38.3634L39.081 7.39425V9.02349L38.3634 9.77545L37.0717 10.2768L36.3541 10.1514L32.1918 8.39686L29.4648 7.39425L25.5896 6.14099L22.432 5.2637L18.1263 4.26109L13.3899 3.38381L8.3665 2.75718L5.20893 2.50652L0.0419922 2.3812L0.903148 1.50391L1.62078 0.877284L3.05604 0.375979L5.49598 0Z" fill="#21673C"/>
</svg>
