<svg width="18" height="21" viewBox="0 0 18 21" fill="none" xmlns="http://www.w3.org/2000/svg">
<path d="M9 9.975C8.14752 9.975 7.32995 9.69844 6.72716 9.20615C6.12436 8.71387 5.78571 8.04619 5.78571 7.35C5.78571 6.65381 6.12436 5.98613 6.72716 5.49384C7.32995 5.00156 8.14752 4.725 9 4.725C9.85248 4.725 10.67 5.00156 11.2728 5.49384C11.8756 5.98613 12.2143 6.65381 12.2143 7.35C12.2143 7.69472 12.1311 8.03606 11.9696 8.35454C11.8081 8.67302 11.5713 8.9624 11.2728 9.20615C10.9744 9.44991 10.62 9.64326 10.2301 9.77518C9.84008 9.9071 9.42211 9.975 9 9.975ZM9 0C6.61305 0 4.32387 0.774373 2.63604 2.15276C0.948211 3.53116 0 5.40066 0 7.35C0 12.8625 9 21 9 21C9 21 18 12.8625 18 7.35C18 5.40066 17.0518 3.53116 15.364 2.15276C13.6761 0.774373 11.3869 0 9 0Z" fill="#F2DD82"/>
</svg>
