<svg width="16" height="26" viewBox="0 0 16 26" fill="none" xmlns="http://www.w3.org/2000/svg">
<path d="M14.9815 0.574341H15.2685L15.5556 1.57695V2.20358L14.8379 2.83021L13.1156 4.45945L11.5368 6.21402L9.81454 8.34457L8.23575 10.6004L7.23107 12.1044L5.65228 14.9869L4.21703 18.2453L2.92529 22.0051L2.78177 21.5038L2.92529 20.8772L3.4994 18.872L3.92997 17.9947L4.6476 16.2401L5.36523 14.7362V14.2349L4.79113 14.1096L4.0735 15.4882L4.21703 15.7388H4.6476L4.50408 16.1148H4.21703V16.3654L3.78645 16.2401L3.4994 16.8668H3.21234L2.78177 18.872L2.35119 19.9999H2.06414L1.77708 21.2532L1.49003 22.0051L1.20298 23.509L0.772403 25.5143L0.485352 25.8902L0.628877 24.5117L0.772403 23.3837L1.34651 21.3785L2.49471 17.8694L3.21234 16.2401L3.4994 15.4882L4.0735 14.3602L5.22171 12.2297L6.65697 9.84848L8.37928 7.46728L10.2451 5.21141L11.5368 3.83282L13.1156 2.20358L14.9815 0.574341Z" fill="#F2DF84"/>
</svg>
