<svg width="43" height="8" viewBox="0 0 43 8" fill="none" xmlns="http://www.w3.org/2000/svg">
<path d="M3.27777 0.669373L9.44939 0.794699L15.621 1.17068L21.362 1.79731L27.2466 2.67459L34.997 4.05318L41.1686 5.30644L42.8909 5.68242V5.80775H41.4557L21.6491 4.42916L27.1031 5.43177L26.9596 5.80775L30.6912 6.43438L32.7006 6.93568V7.06101L29.9736 6.93568L23.802 6.55971L17.0563 6.30905L4.28246 6.18373V6.0584L8.87529 5.68242L14.6163 5.30644L15.4775 5.18112L7.58355 4.42916L6.86592 4.30383V4.17851L14.0422 3.80253L15.4775 3.6772L12.607 2.92524L10.0235 2.42394L6.43534 2.04796L1.41194 1.79731V1.67198L2.27309 1.54666L0.550781 1.17068L0.837833 0.920025L3.27777 0.669373Z" fill="#96C776"/>
</svg>
