<svg width="27" height="21" viewBox="0 0 27 21" fill="none" xmlns="http://www.w3.org/2000/svg">
<path d="M25.4 0.00835162C25.2872 -0.00278387 25.1736 -0.00278387 25.0608 0.00835162H1.89839C1.74994 0.0105439 1.60247 0.0318774 1.45996 0.0717776L13.4134 11.4805L25.4 0.00835162Z" fill="#F2DD82"/>
<path d="M26.8988 0.400879L14.6137 12.977C14.2976 13.3 13.8699 13.4814 13.4241 13.4814C12.9782 13.4814 12.5505 13.3 12.2344 12.977L0.0590625 0.496284C0.0216333 0.637691 0.00178764 0.783405 0 0.929941V18.2762C0 18.7363 0.17779 19.1775 0.494257 19.5028C0.810725 19.8281 1.23995 20.0109 1.6875 20.0109H25.3125C25.7601 20.0109 26.1893 19.8281 26.5057 19.5028C26.8222 19.1775 27 18.7363 27 18.2762V0.929941C26.9933 0.74924 26.9591 0.57073 26.8988 0.400879ZM2.84344 18.2762H1.67063V17.036L7.80469 10.7826L8.99437 12.0056L2.84344 18.2762ZM25.2956 18.2762H24.1144L17.9634 12.0056L19.1531 10.7826L25.2872 17.036L25.2956 18.2762Z" fill="#F2DD82"/>
</svg>
