<svg width="28" height="21" viewBox="0 0 28 21" fill="none" xmlns="http://www.w3.org/2000/svg">
<path d="M25.4888 0.00835162C25.3761 -0.00278387 25.2624 -0.00278387 25.1497 0.00835162H1.98726C1.83881 0.0105439 1.69134 0.0318774 1.54883 0.0717776L13.5023 11.4805L25.4888 0.00835162Z" fill="#1F673C"/>
<path d="M26.9876 0.400879L14.7026 12.977C14.3864 13.3 13.9587 13.4814 13.5129 13.4814C13.0671 13.4814 12.6394 13.3 12.3232 12.977L0.14793 0.496284C0.1105 0.637691 0.0906548 0.783405 0.0888672 0.929941V18.2762C0.0888672 18.7363 0.266657 19.1775 0.583125 19.5028C0.899592 19.8281 1.32881 20.0109 1.77637 20.0109H25.4014C25.8489 20.0109 26.2781 19.8281 26.5946 19.5028C26.9111 19.1775 27.0889 18.7363 27.0889 18.2762V0.929941C27.0822 0.74924 27.048 0.57073 26.9876 0.400879ZM2.9323 18.2762H1.75949V17.036L7.89355 10.7826L9.08324 12.0056L2.9323 18.2762ZM25.3845 18.2762H24.2032L18.0523 12.0056L19.242 10.7826L25.3761 17.036L25.3845 18.2762Z" fill="#1F673C"/>
</svg>
