<svg width="663" height="487" viewBox="0 0 663 487" fill="none" xmlns="http://www.w3.org/2000/svg">
<path d="M125.439 486.229C116.805 484.284 101.262 475.933 96.121 470.482C90.6727 464.689 90.8092 464.235 98.4414 462.809C101.228 462.291 103.804 461.371 104.163 460.77C105.118 459.167 74.0375 453.062 66.2631 453.327C62.6062 453.451 54.0128 451.972 47.1596 450.039C40.3065 448.111 31.3264 445.66 27.1974 444.593L19.696 442.66L19.2922 436.331C18.9623 431.186 19.5254 429.283 22.295 426.183C26.2135 421.798 28.8069 421.562 41.7795 424.415C57.4649 427.856 69.6811 432.329 72.7294 435.742C74.5209 437.745 79.8328 440.215 86.5551 442.165C92.5551 443.91 101.695 446.956 106.864 448.942C115.958 452.425 116.328 452.461 118.125 449.915C119.143 448.471 119.979 445.819 119.979 444.022C119.979 441.452 120.73 440.757 123.505 440.757C135.431 440.757 165.983 453.191 179.576 463.587C188.692 470.553 195.25 477.855 193.777 479.387C193.134 480.047 187.475 481.821 181.196 483.329C168.821 486.294 133.81 488.121 125.433 486.229H125.439ZM173.558 480.554C181.64 479.116 188.573 477.613 188.959 477.212C190.478 475.639 175.862 463.829 166.256 458.867C152.436 451.73 146.652 449.408 136.779 447.021C132.138 445.896 127.407 444.611 126.275 444.157C124.824 443.58 123.568 444.923 122.078 448.624C120.9 451.535 120.104 454.064 120.303 454.24C120.497 454.411 123.841 456.215 127.725 458.236C131.615 460.263 135.17 462.544 135.63 463.316C136.745 465.19 130.381 466.74 126.121 465.632C121.873 464.53 121.634 461.972 125.78 461.961C128.789 461.955 128.783 461.919 125.439 460.116C119.024 456.668 94.7561 447.958 81.7778 444.446C69.9029 441.24 68.6688 441.134 67.1104 443.238C63.9995 447.428 62.2706 446.785 100.876 455.743C115.77 459.197 121.344 460.876 121.344 461.919C121.344 464.106 119.558 464.501 115.805 463.145C112.819 462.067 110.168 462.302 104.902 464.112L97.9409 466.51L101.001 469.887C104.84 474.118 114.371 478.957 123.334 481.214C133.68 483.819 156.872 483.512 173.558 480.554ZM130.21 478.945C129.67 478.037 134.265 477.53 143.012 477.53C150.639 477.53 157.031 478.155 157.498 478.945C158.044 479.846 153.448 480.359 144.701 480.359C137.075 480.359 130.682 479.735 130.21 478.945ZM115.884 475.45C106.739 472.733 102.24 470.683 102.24 469.227C102.24 468.514 106.87 469.451 112.529 471.313C118.182 473.175 123.67 474.702 124.728 474.702C125.78 474.702 127.02 475.338 127.48 476.116C128.607 478.002 123.477 477.707 115.884 475.45ZM178.552 473.871C177.579 472.657 174.417 470.411 171.528 468.885C168.639 467.359 166.631 465.496 167.075 464.754C168.07 463.086 177.016 467.653 180.44 471.578C181.828 473.169 182.345 474.784 181.623 475.25C180.906 475.709 179.524 475.091 178.552 473.871ZM63.118 445.165C63.5502 442.92 64.2896 439.49 64.7673 437.539C65.609 434.05 65.3531 433.921 50.1625 430.261C41.6601 428.21 33.4022 426.242 31.8098 425.882C28.0278 425.039 21.7377 431.045 21.7377 435.512C21.7377 439.431 24.2571 440.497 45.6184 445.642C63.1749 449.874 62.2024 449.897 63.118 445.165ZM52.7217 436.496C50.6288 435.848 45.0383 434.881 40.3008 434.357C31.6164 433.39 27.2259 431.77 28.8297 430.108C30.6837 428.186 62.6744 434.392 62.6744 436.679C62.6744 438.199 57.8971 438.111 52.7217 436.496ZM261.875 463.387C261.875 462.609 262.797 461.972 263.923 461.972C265.049 461.972 265.97 462.609 265.97 463.387C265.97 464.165 265.049 464.801 263.923 464.801C262.797 464.801 261.875 464.165 261.875 463.387ZM270.059 463.387C270.059 462.609 270.674 461.972 271.424 461.972C272.175 461.972 272.789 462.609 272.789 463.387C272.789 464.165 272.175 464.801 271.424 464.801C270.674 464.801 270.059 464.165 270.059 463.387ZM274.251 461.619C273.603 459.868 273.546 457.912 274.12 457.275C275.781 455.431 284.664 457.747 287.241 460.694C290.078 463.947 289.578 464.011 283.129 461.218C277.709 458.872 275.189 459.438 276.406 462.721C276.827 463.864 276.782 464.801 276.304 464.801C275.821 464.801 274.899 463.369 274.251 461.619ZM326.903 463.198C325.521 462.367 322.604 461.961 320.42 462.291C317.741 462.697 316.45 462.285 316.45 461.018C316.45 459.851 318.094 459.144 320.79 459.144C325.76 459.144 334.189 461.99 334.189 463.67C334.189 465.273 329.878 464.996 326.903 463.198ZM297.569 458.436C297.938 456.279 299.315 455.502 303.37 455.154C310.405 454.559 315.085 455.879 315.085 458.46C315.085 459.615 314.471 460.558 313.72 460.558C312.97 460.558 312.355 459.921 312.355 459.144C312.355 457.099 300.952 457.399 298.854 459.497C297.421 460.923 297.176 460.723 297.569 458.436ZM366.936 456.315C366.936 455.537 367.55 454.9 368.295 454.9C369.046 454.9 369.66 455.537 369.66 456.315C369.66 457.093 369.046 457.729 368.295 457.729C367.55 457.729 366.936 457.093 366.936 456.315ZM352.376 452.779C352.627 452.001 355.186 451.365 358.064 451.365C360.941 451.365 363.501 452.001 363.751 452.779C364.007 453.58 361.55 454.193 358.064 454.193C354.577 454.193 352.121 453.58 352.376 452.779ZM309.66 451.317C304.945 449.709 302.528 449.585 299.076 450.763C292.74 452.932 290.363 451.571 295.578 448.76C301.043 445.819 306.247 445.79 313.891 448.642C321.381 451.441 336.105 450.28 345.347 446.167C351.353 443.491 355.146 439.342 351.592 439.342C350.539 439.342 350.687 438.6 352.018 437.221C353.793 435.388 355.01 435.353 361.078 436.985C364.928 438.022 368.898 438.417 369.899 437.863C373.578 435.818 377.85 434.946 377.85 436.248C377.85 438.889 369.671 441.14 363.336 440.244C357.825 439.46 356.778 439.755 354.521 442.731C353.11 444.587 349.499 447.44 346.496 449.06C339.142 453.032 318.429 454.299 309.66 451.317ZM275.616 449.037C270.873 446.727 268.097 446.29 262.655 446.998C258.85 447.487 254.812 447.823 253.686 447.74C252.56 447.652 246.884 447.634 241.066 447.699C234.895 447.764 230.493 447.227 230.493 446.402C230.493 444.894 231.824 444.764 253.686 444.098C265.299 443.745 270.014 444.257 278.579 446.809C284.391 448.536 289.151 450.427 289.157 451.011C289.169 453.044 281.61 451.942 275.616 449.037ZM565.113 451.135C564.175 450.74 563.413 449.679 563.424 448.771C563.43 447.622 568.235 447.057 579.246 446.909C587.947 446.791 594.539 447.233 593.902 447.888C591.428 450.433 569.379 452.914 565.113 451.135ZM530.324 448.276C526.167 445.489 525.206 442.696 528.959 444.31C535.926 447.304 541.75 447.994 549.638 446.756C554.694 445.966 558.357 445.955 558.823 446.727C560.108 448.883 558.863 449.208 546.243 450.015C536.034 450.669 533.469 450.392 530.324 448.276ZM604.344 445.872C604.344 444.393 607.438 443.78 617.163 443.338C624.289 443.02 630.858 442.006 631.955 441.063C633.041 440.132 634.327 439.778 634.816 440.285C636.545 442.077 630.556 444.888 621.934 446.338C609.747 448.388 604.344 448.247 604.344 445.872ZM197.121 441.311C195.432 439.56 195.289 438.594 196.512 437.068C198.639 434.41 203.826 434.575 206.061 437.374C207.608 439.307 207.494 439.943 205.288 441.617C201.904 444.181 199.811 444.104 197.121 441.311ZM203.212 439.342C203.212 438.564 202.597 437.928 201.847 437.928C201.096 437.928 200.482 438.564 200.482 439.342C200.482 440.12 201.096 440.757 201.847 440.757C202.597 440.757 203.212 440.12 203.212 439.342ZM170.465 440.757C170.465 439.979 171.079 439.342 171.829 439.342C172.58 439.342 173.194 439.979 173.194 440.757C173.194 441.535 172.58 442.171 171.829 442.171C171.079 442.171 170.465 441.535 170.465 440.757ZM178.029 440.851C177.022 439.16 179.587 437.486 181.401 438.647C182.931 439.625 181.93 442.171 180.019 442.171C179.354 442.171 178.461 441.576 178.029 440.851ZM218.766 438.134C210.645 431.976 208.558 428.958 208.927 423.908C209.195 420.284 208.393 418.681 204.872 415.822C196.745 409.228 199.777 402.174 213.307 396.216C222.924 391.978 224.226 390.069 225.574 378.277C226.478 370.362 226.154 369.908 210.036 356.466C188.26 338.303 181.538 331.649 175.071 321.837C169.72 313.722 168.116 312.178 165.784 312.903C159.864 314.748 159.79 313.699 167.792 341.043C172.853 358.352 177.716 380.84 177.761 387.181C177.812 393.192 178.154 393.835 182.084 395.308C184.432 396.192 187.418 396.911 188.721 396.911C190.029 396.911 190.717 397.548 190.25 398.325C189.147 400.176 183.284 400.135 179.894 398.255C177.812 397.1 176.368 397.4 173.376 399.604C171.266 401.166 166.046 403.794 161.78 405.45C154.489 408.279 153.545 408.332 146.197 406.405C128.498 401.744 112.597 391.896 92.0148 372.825C80.0034 361.705 67.8214 353.401 61.7929 352.229C58.7104 351.628 56.481 350.066 55.19 347.597C53.8308 345.004 53.2222 344.597 53.1824 346.271C53.154 347.585 51.8232 350.956 50.2251 353.755C47.9103 357.827 47.5236 360.049 48.2971 364.799C48.8317 368.07 49.5881 372.825 49.9862 375.371C50.7995 380.605 48.3994 387.83 45.4648 389.002C44.3843 389.427 38.7311 390.193 32.896 390.694L22.2894 391.613L16.6135 384.582C13.4912 380.716 8.458 373.02 5.4267 367.474C-1.33542 355.11 -1.67096 349.612 3.8229 341.297C9.91393 332.091 14.9756 320.906 14.1111 318.566C13.6789 317.394 14.259 314.659 15.4078 312.479C16.5566 310.298 19.3889 304.252 21.7036 299.042C26.1794 288.971 31.0818 283.767 36.1036 283.767C37.7984 283.767 39.1065 282.971 39.0098 281.999C38.6003 277.721 41.1994 259.051 42.8999 254.047C45.5103 246.38 54.4109 227.41 55.8213 226.502C56.4639 226.09 56.9929 222.872 56.9929 219.354C56.9929 214.58 58.7843 209.023 64.0166 197.543C68.0943 188.603 71.5636 178.679 72.2745 173.899C74.7484 157.345 78.0015 147.881 85.7077 134.827C88.8016 129.594 91.3438 124.526 91.3608 123.565C91.4234 119.811 96.667 110.064 100.75 106.11C104.771 102.214 104.942 101.648 103.469 97.258C102.275 93.7221 102.275 91.2351 103.458 87.1452C105.169 81.2108 111.852 74.4453 115.992 74.4453C118.051 74.4453 118.62 73.4376 118.62 69.8074C118.62 67.2615 119.513 63.8552 120.605 62.2405C122.533 59.3763 122.197 59.1878 107.296 54.7796C91.7646 50.1888 79.6736 44.2779 77.0745 40.0053C76.0223 38.2786 76.193 36.6167 77.7171 33.7703C81.2489 27.1816 91.0765 24.7654 118.563 23.7223L142.381 22.8206L144.013 16.9687C146.578 7.76344 149.479 4.2334 155.848 2.54794C165.67 -0.0509795 178.836 -0.705126 191.382 0.78586C218.243 3.9682 230.482 11.653 230.493 25.3312C230.499 29.8454 231.079 30.9003 234.253 32.1791C239.456 34.2712 256.666 39.192 259.151 39.304C260.277 39.3512 265.8 41.7084 271.43 44.5431C283.294 50.5129 287.076 55.6636 283.021 60.3134C278.306 65.7057 268.53 69.112 255.056 70.0372C244.529 70.7621 242.186 71.3278 242.59 73.0427C242.857 74.2037 243.096 77.6571 243.113 80.7157C243.142 85.2241 242.317 87.051 238.74 90.3629C236.317 92.6083 234.543 94.612 234.804 94.8064C235.06 95.0068 237.301 96.0087 239.775 97.0282C242.306 98.0772 246.031 101.525 248.272 104.907C250.473 108.219 254.476 113.064 257.172 115.668C259.868 118.273 265.413 125.693 269.496 132.146C273.574 138.599 279.29 146.449 282.202 149.584C285.108 152.725 288.543 157.947 289.834 161.188C292.581 168.112 292.763 168.448 297.842 176.015C305.44 187.336 308.482 219.03 305.07 251.236C301.669 283.331 301.669 282.989 305.013 283.484C308.647 284.02 310.985 289.242 311.036 296.915L311.07 302.855L315.091 297.905C319.345 292.666 320.17 288.193 317.656 284.014C316.541 282.164 316.524 279.765 317.593 275.192C320.141 264.29 323.912 254.089 325.231 254.525C329.582 255.957 331.595 276.677 327.916 282.129C325.038 286.384 326.266 287.409 330.663 284.421C333.58 282.441 334.194 280.938 334.194 275.776C334.194 268.433 336.742 261.508 340.837 257.725C344.551 254.289 345.353 255.202 346.149 263.807C346.615 268.816 346.172 271.709 344.591 274.055C341.639 278.416 341.798 279.942 345.017 278.157C351.159 274.75 360.333 276.913 366.6 283.254C369.285 285.971 368.773 286.331 360.685 287.374C355.453 288.051 352.047 287.792 349.794 286.543C347.013 284.999 345.666 285.128 340.831 287.385L335.144 290.043L342.975 292.454C347.281 293.78 351.939 295.931 353.332 297.233C355.675 299.431 356.34 299.437 362.46 297.333C366.088 296.084 371.19 293.591 373.8 291.799C383.065 285.417 392.909 281.987 399.603 282.8C403.021 283.213 407.207 283.997 408.896 284.533C410.807 285.14 411.962 284.916 411.962 283.932C411.962 283.06 410.733 282.353 409.226 282.353C405.581 282.353 395.469 271.539 390.43 262.251C384.134 250.647 381.398 240.469 381.387 228.606C381.376 219.601 381.91 217.144 384.896 212.341C386.83 209.229 389.571 205.658 390.981 204.403C396.714 199.311 406.286 194.661 411.046 194.661C413.787 194.661 420.794 193.247 426.618 191.52C435.74 188.809 440.511 188.373 461.082 188.367C486.931 188.356 498.419 190.406 506.279 196.435C509.941 199.24 510.163 199.936 509.361 206.183C508.889 209.878 508.94 217.138 509.475 222.312L510.447 231.718L514.076 228.282C516.072 226.396 519.308 223.627 521.265 222.13C527.498 217.374 539.407 207.709 543.223 204.314C546.664 201.25 547.028 199.824 548.529 183.346C549.416 173.628 550.69 164.559 551.367 163.197C553.329 159.237 560.825 160.168 570.937 165.631C585.274 173.375 598.981 190.141 595.022 195.086C594.215 196.093 586.77 199.741 578.478 203.189L563.401 209.459L555.985 220.804C551.907 227.039 542.728 240.735 535.591 251.236C510.231 288.558 506 295.147 506.318 296.874C507.001 300.551 504.538 304.57 500.347 306.627L495.979 308.772L504.112 311.235C526.087 317.901 534.345 321.083 540.743 325.379C547.477 329.887 554.939 337.071 553.756 337.902C553.437 338.12 547.858 341.951 541.352 346.406C534.846 350.861 527.941 356.46 526.008 358.841C524.074 361.222 518.347 365.412 513.274 368.146C501.587 374.458 501.479 374.558 496.514 383.557C492.004 391.725 482.438 401.926 473.111 408.521C467.401 412.558 466.849 412.658 454.94 411.915C441.603 411.084 423.558 406.853 418.394 403.346C416.614 402.132 409.368 398.549 402.305 395.385C391.971 390.753 385.84 389.079 371.031 386.845C348.964 383.522 333.21 378.807 323.963 372.772L317.138 368.323L320.858 372.401C322.9 374.646 325.237 378.459 326.05 380.876C327.415 384.93 328.092 385.307 334.985 385.903C340.57 386.38 343.374 387.452 346.16 390.175C348.555 392.515 352.803 394.418 358.069 395.526C362.574 396.475 368.739 398.455 371.77 399.928C378.06 402.981 382.468 409.34 380.517 412.534C378.714 415.492 378.93 416.712 381.268 416.712C382.394 416.712 383.315 417.349 383.315 418.127C383.315 420.614 379.419 419.647 376.541 416.447C375.012 414.744 373.76 414.001 373.76 414.797C373.76 416.488 362.596 424.038 356.704 426.324C350.386 428.776 342.378 429.937 342.378 428.399C342.378 427.644 346.439 425.894 351.393 424.503C356.824 422.983 362.932 419.977 366.742 416.96C370.229 414.202 374.272 411.856 375.728 411.744C379.561 411.45 379.726 409.21 376.178 405.816C372.509 402.315 363.023 398.82 353.787 397.565C347.645 396.734 346.866 396.988 343.197 400.983C341.019 403.358 338.699 404.955 338.045 404.537C337.391 404.118 338.71 401.973 340.979 399.775C348.174 392.815 345.319 388.425 333.603 388.425C327.847 388.425 327.37 388.702 327.37 392.008C327.37 395.562 324.048 398.249 322.194 396.186C321.665 395.597 322.001 394.825 322.939 394.477C323.878 394.135 324.645 392.88 324.645 391.696C324.645 390.358 323.866 389.851 322.598 390.352C321.375 390.841 320.551 390.364 320.551 389.167C320.551 388.071 319.208 386.197 317.565 385.007C313.72 382.213 315.398 380.398 319.863 382.508C324.771 384.824 324.412 381.377 319.095 375.1L314.909 370.156L308.13 372.926C304.399 374.452 299.934 375.695 298.206 375.695C293.57 375.695 285.387 368.629 284.283 363.679C283.407 359.731 283.271 359.642 282.259 362.471C281.661 364.139 280.518 365.93 279.716 366.443C277.129 368.099 278.135 369.555 283.635 372.13C293.32 376.656 298.723 385.738 298.723 397.506C298.723 403.341 299.098 404.036 303.387 406.152C307.009 407.931 308.698 408.091 310.894 406.871C312.452 406.01 313.726 404.731 313.726 404.036C313.726 402.062 317.809 398.325 319.965 398.325C321.04 398.325 321.762 399.103 321.574 400.052C321.358 401.137 323.645 402.085 327.705 402.592C331.271 403.04 334.951 404.248 335.895 405.274C337.3 406.806 336.81 407.03 333.171 406.517C327.483 405.71 327.574 406.971 333.54 411.685C336.179 413.778 337.959 416.123 337.499 416.901C336.981 417.767 335.741 417.455 334.291 416.099C330.748 412.776 329.667 413.406 330.6 418.245C331.203 421.368 330.964 422.435 329.747 422.016C328.814 421.698 327.751 419.264 327.375 416.6C327 413.943 326.079 411.762 325.328 411.762C324.577 411.762 324.105 410.648 324.287 409.287C324.475 407.867 323.73 406.812 322.536 406.812C321.398 406.812 320.141 405.945 319.749 404.879C319.226 403.464 317.986 404.03 315.119 407C312.97 409.234 310.206 411.055 308.971 411.055C307.186 411.055 307.544 412.257 310.769 417.066C314.744 422.989 317.485 433.685 315.028 433.685C314.335 433.685 313.072 430.809 312.219 427.297C310.302 419.423 308.858 418.28 307.789 423.808C307.339 426.13 306.316 428.027 305.514 428.027C304.575 428.027 304.382 426.206 304.979 422.93C305.849 418.121 305.741 417.92 303.114 419.376C301.578 420.231 300.037 421.727 299.69 422.712C299.218 424.044 298.643 424.091 297.415 422.888C296.141 421.651 296.465 420.608 298.865 418.292C300.571 416.648 302.767 415.298 303.751 415.298C304.734 415.298 305.542 414.785 305.542 414.155C305.542 412.463 301.766 407.413 301.112 408.232C300.805 408.621 297.95 411.915 294.776 415.551C289.06 422.099 289.021 422.217 291.131 426.442C293.514 431.221 293.997 439.342 291.898 439.342C291.148 439.342 290.533 437.191 290.533 434.569C290.533 431.917 289.567 428.953 288.355 427.915C286.45 426.277 286.211 426.477 286.456 429.507C286.973 435.747 286.467 439.342 285.079 439.342C284.329 439.342 283.714 438.405 283.714 437.256C283.714 435.689 282.611 435.364 279.278 435.942C275.07 436.679 274.979 436.602 277.493 434.492C278.949 433.272 280.638 432.27 281.246 432.27C281.849 432.27 282.35 431.316 282.35 430.149C282.35 427.497 281.826 427.503 276.696 430.255C274.41 431.481 272.141 432.064 271.652 431.551C270.531 430.396 274.82 426.937 280.547 424.362C282.935 423.289 285.33 421.674 285.87 420.773C286.854 419.123 284.187 419.282 269.206 421.763C263.218 422.759 261.051 421.45 256.347 413.996L254.226 410.631L249.312 415.875C246.531 418.84 244.029 420.49 243.54 419.677C243.068 418.881 245.183 415.634 248.243 412.463L253.811 406.694L247.606 399.174C241.947 392.308 240.787 391.572 234.321 390.776C224.772 389.609 221.758 392.22 222.696 400.86C223.06 404.195 224.351 408.067 225.562 409.458C228.093 412.357 228.378 413.884 226.387 413.884C224.152 413.884 219.597 405.038 219.591 400.683C219.585 398.479 219.125 396.888 218.556 397.147C217.987 397.406 214.689 398.791 211.214 400.223C207.415 401.791 204.309 404.177 203.416 406.216C202.131 409.134 202.433 410.094 205.623 413.159C207.659 415.115 209.672 416.712 210.099 416.712C210.525 416.712 213.875 419.612 217.549 423.16C221.701 427.167 226.444 430.22 230.09 431.233C236.226 432.93 237.955 435.099 233.178 435.099C229.259 435.099 219.847 429.884 216.002 425.582L212.766 421.957V425.593C212.766 428.104 214.518 430.779 218.465 434.286C221.604 437.068 224.982 439.342 225.972 439.342C226.962 439.342 227.775 439.979 227.775 440.757C227.775 443.297 224.192 442.254 218.766 438.134ZM280.012 415.781C287.792 414.909 287.957 414.797 290.721 408.515C292.82 403.735 293.826 402.633 294.736 404.118C296.442 406.906 296.352 396.192 294.617 389.721C292.615 382.243 287.178 377.511 273.813 371.6C262.461 366.579 256.421 362.106 256.421 358.717C256.421 357.114 249.83 350.201 248.38 350.284C245.701 350.431 242.533 354.609 243.381 356.89C244.438 359.742 244.097 360.803 242.095 360.927C237.096 361.233 234.594 363.384 234.594 367.368C234.594 369.979 233.291 372.926 231.181 375.118C227.337 379.108 226.683 384.859 229.93 386.15C231.119 386.622 234.491 387.01 237.432 387.01C240.844 387.01 243.517 387.906 244.814 389.486C258.452 406.093 262.512 408.963 266.966 405.132C268.803 403.547 268.933 403.93 268.04 408.256C266.846 414.031 266.169 415.045 264.878 413.029C263.53 410.937 259.151 409.458 259.151 411.096C259.151 411.85 260.442 413.801 262.018 415.433C264.094 417.59 265.868 418.168 268.495 417.537C270.486 417.06 275.667 416.27 280.012 415.781ZM239.655 384.712C238.586 383.61 240.054 379.939 241.561 379.939C243.119 379.939 243.153 383.775 241.606 384.765C240.958 385.184 240.082 385.154 239.655 384.712ZM236.186 377.11C236.436 376.332 237.102 375.695 237.665 375.695H241.413C242.914 375.695 244.143 376.332 244.143 377.11C244.143 377.888 242.249 378.524 239.94 378.524C237.625 378.524 235.936 377.888 236.186 377.11ZM245.508 376.485C245.508 375.365 246.162 374.034 246.958 373.521C247.868 372.937 247.492 371.906 245.934 370.727C244.575 369.696 243.927 368.376 244.49 367.793C245.303 366.95 248.806 368.17 253.436 370.904C253.97 371.217 246.969 378.524 246.128 378.524C245.786 378.524 245.508 377.605 245.508 376.485ZM473.23 404.784C480.083 401.078 490.383 389.798 494.381 381.618C496.309 377.676 501.291 370.834 505.448 366.42C509.606 362.005 512.165 358.729 511.136 359.135C510.106 359.548 504.1 361.304 497.793 363.049C480.902 367.704 467.907 374.841 467.907 379.449C467.907 382.296 472.991 381.754 478.963 378.277C484.559 375.012 487.943 375.707 483.496 379.208C482.051 380.345 478.218 382.349 474.982 383.663C469.266 385.979 469.016 385.967 466.241 383.086C463.533 380.28 463.499 379.933 465.632 376.562C470.062 369.549 477.871 365.983 513.883 354.515C523.79 351.362 532.247 348.192 532.679 347.473C533.105 346.754 536.233 344.727 539.623 342.97C548.802 338.22 549.519 336.753 545.043 331.903C538.952 325.32 529.255 321.684 520.758 322.804C516.828 323.316 513.001 324.183 512.25 324.713C509.435 326.717 499.232 329.439 498.277 328.444C497.276 327.412 497.156 326.811 496.764 320.924C496.582 318.154 496.144 317.942 493.056 319.156C488.608 320.912 485.645 320.918 485.645 319.179C485.645 318.431 488.08 317.064 491.054 316.144C494.034 315.219 496.19 313.993 495.848 313.422C495.507 312.85 491.077 311.942 486.004 311.406C459.171 308.554 440.802 303.839 427.823 296.479C417.836 290.809 397.982 285.075 393.228 286.484C388.598 287.863 372.475 296.149 369.671 298.594C368.545 299.578 365.321 301.146 362.505 302.083C359.616 303.044 357.393 304.706 357.393 305.89C357.393 307.322 356.517 307.741 354.663 307.198L349.294 305.619C347.082 304.977 346.672 305.548 346.775 309.155C346.837 311.53 347.127 313.469 347.417 313.469C348.822 313.469 360.242 306.845 366.941 302.154C377.582 294.693 384.907 291.057 392.858 289.289C398.762 287.981 401.093 288.181 408.936 290.697C418.991 293.921 422.597 295.848 421.226 297.268C420.737 297.775 416.608 296.856 412.053 295.223C407.497 293.591 401.605 292.253 398.955 292.253C391.419 292.253 377.986 297.592 368.824 304.234C364.217 307.57 356.136 312.656 350.858 315.526C339.381 321.778 330.1 329.687 330.1 333.217C330.1 337.938 334.627 341.361 343.22 343.153C347.81 344.108 352.399 345.422 353.417 346.07C356.665 348.15 353.747 349.052 348.316 347.65C333.904 343.913 334.621 343.678 330.253 353.649C328.092 358.599 325.305 363.237 324.06 363.956C317.9 367.527 328.194 373.639 349.812 379.231C357.279 381.164 367.408 383.121 372.327 383.586C384.259 384.706 393.688 387.517 404.801 393.269C420.39 401.337 430.229 405.167 439.363 406.717C456.925 409.693 464.989 409.234 473.23 404.779V404.784ZM431.873 395.332C425.855 393.87 410.693 385.331 412.809 384.6C413.565 384.335 418.428 386.115 423.609 388.549C429.575 391.354 435.802 393.145 440.58 393.428C449.986 393.988 450.077 394.018 446.756 395.497C443.31 397.035 438.663 396.982 431.873 395.332ZM410.261 375.607C404.443 372.525 399.683 369.472 399.683 368.824C399.683 366.991 405.057 362.406 406.03 363.414C406.508 363.909 406.155 365.241 405.251 366.372C403.92 368.028 404.119 368.718 406.274 369.908C408.299 371.034 409.357 370.887 410.614 369.319C411.524 368.176 412.872 367.622 413.605 368.093C414.441 368.629 414.384 369.508 413.446 370.48C411.097 372.92 411.615 373.692 417.421 376.403C420.424 377.805 422.881 379.497 422.881 380.157C422.881 382.06 421.476 381.553 410.261 375.607ZM402.413 378.524C398.659 376.008 386.892 373.173 370.348 370.792C348.128 367.598 336.867 364.781 332.977 361.452C328.973 358.016 330.031 356.313 334.416 359.141C338.335 361.664 352.536 365.259 363.529 366.502C384.003 368.824 407.872 375.401 407.872 378.719C407.872 380.339 404.966 380.233 402.413 378.524ZM490.417 371.452C492.76 368.771 496.559 367.58 496.559 369.531C496.559 370.963 491.975 374.187 489.865 374.234C488.409 374.269 488.546 373.597 490.417 371.452ZM421.965 369.785C418.832 368.134 414.538 365.329 412.411 363.55L408.555 360.314L412.309 356.372C415.198 353.331 416.056 352.965 416.056 354.786C416.056 356.083 415.442 357.538 414.691 358.016C412.309 359.548 413.218 361.469 416.756 362.389C418.724 362.901 421.05 362.536 422.216 361.54C423.871 360.114 424.246 360.214 424.246 362.088C424.246 363.349 423.478 364.404 422.54 364.428C421.556 364.451 421.926 365.329 423.41 366.49C425.321 367.993 426.674 368.134 428.642 367.038C432.424 364.946 433.448 366.785 430.309 370.038C427.681 372.755 427.601 372.755 421.965 369.785ZM427.317 357.727C423.376 354.939 420.151 351.787 420.151 350.72C420.151 348.204 428.807 343.919 431.622 345.045C432.817 345.516 433.795 347.19 433.795 348.752C433.795 350.708 434.966 351.863 437.548 352.453C443.6 353.826 444.709 354.321 444.709 355.647C444.709 356.33 441.484 356.649 437.548 356.342C430.599 355.812 430.474 355.865 433.454 358.14C436.434 360.414 437.577 363.06 435.501 362.878C434.938 362.831 431.253 360.509 427.311 357.727H427.317ZM429.729 350.914C430.678 349.724 431.116 348.404 430.695 347.968C429.478 346.707 424.087 350.243 424.968 351.722C426.123 353.661 427.749 353.384 429.729 350.914ZM371.776 354.786C363.865 352.005 357.387 349.211 357.387 348.569C357.387 346.63 361.004 347.249 369.978 350.726C384.043 356.171 387.802 356.33 393.819 351.716C396.669 349.53 403.516 343.23 409.027 337.725C418.274 328.491 423.455 324.908 425.11 326.617C425.469 326.994 423.734 328.791 421.255 330.612C418.769 332.433 411.097 339.417 404.193 346.135C397.294 352.859 390.413 358.688 388.906 359.1C387.398 359.507 379.687 357.568 371.776 354.786ZM450.339 343.86C445.431 339.829 443.969 339.287 441.109 340.413C436.957 342.051 435.16 342.116 435.16 340.619C435.16 338.857 447.444 333.105 449.037 334.125C449.964 334.714 449.81 335.48 448.61 336.299C447.109 337.325 447.211 337.837 449.15 339.028C450.47 339.829 453.183 341.945 455.173 343.725C461.054 348.964 456.714 349.088 450.339 343.86ZM460.127 337.154C454.889 332.622 453.552 330.777 455.003 330.088C456.021 329.599 469.13 339.381 469.204 340.69C469.351 343.118 465.092 341.456 460.127 337.154ZM470.051 334.826C467.856 332.427 464.881 330.082 463.437 329.605C461.708 329.039 461.27 328.267 462.151 327.347C463.596 325.856 468.623 328.225 474.726 333.282C477.518 335.592 478.946 335.869 482.557 334.791C484.986 334.066 487.295 334.019 487.693 334.69C488.739 336.441 486.669 337.419 479.958 338.356C474.629 339.098 473.651 338.745 470.051 334.826ZM484.855 327.347C481.158 324.866 477.871 322.633 477.547 322.374C477.223 322.114 477.535 321.301 478.246 320.564C479.549 319.221 495.137 328.638 495.177 330.795C495.211 332.993 491.344 331.702 484.855 327.347ZM426.976 324.784C426.976 324.006 427.596 323.369 428.358 323.369C429.677 323.369 444.709 313.516 444.709 312.656C444.709 312.432 439.823 309.815 433.852 306.845C427.886 303.875 422.972 300.651 422.938 299.679C422.853 297.133 423.433 297.316 435.484 303.568C441.484 306.68 447.239 309.226 448.28 309.226C452.87 309.226 449.384 313.681 440.091 319.686C429.956 326.234 426.97 327.395 426.97 324.784H426.976ZM162.275 401.089C171.141 397.665 174.554 394 174.554 387.883C174.554 381.819 168.667 352.93 165.295 342.458C163.793 337.79 160.904 328.243 158.88 321.242C156.855 314.247 153.937 306.379 152.396 303.763C150.849 301.152 149.058 296.06 148.415 292.448C145.304 275.086 140.277 269.859 125.223 268.344C120.297 267.849 116.55 266.759 116.22 265.722C115.458 263.329 131.314 264.797 136.546 267.602C142.717 270.908 143.757 269.494 139.026 264.231C137.035 262.015 134.618 261.125 130.5 261.09C127.213 261.066 122.129 259.634 118.614 257.737C115.236 255.921 109.964 253.057 106.887 251.378C103.816 249.698 100.375 248.696 99.2433 249.144C98.1116 249.592 95.757 253.122 94.0111 256.988C88.4205 269.37 71.5465 283.767 62.6289 283.767C60.4109 283.767 59.9388 284.409 60.536 286.596L62.0829 292.253C62.5095 293.809 64.0337 295.73 65.4668 296.532C67.0195 297.392 68.9702 301.258 70.2896 306.073C71.5067 310.528 73.4915 315.761 74.6972 317.706C75.9029 319.651 78.1437 323.764 79.6736 326.841C81.2034 329.923 85.2186 334.407 88.5968 336.812C91.9864 339.222 97.3893 345.269 100.642 350.307C109.645 364.215 118.472 375.519 121.748 377.334C123.369 378.235 129.898 380.457 136.256 382.266C149.507 386.044 152.834 388.413 149.956 392.014C148.648 393.64 146.891 394.076 144.019 393.481C139.475 392.538 134.669 388.69 135.755 386.863C136.148 386.215 134.749 385.284 132.656 384.806C119.467 381.771 114.627 377.316 99.7893 354.568C94.3523 346.223 90.3656 341.703 86.5494 339.552C83.5466 337.861 79.8669 334.461 78.3655 331.997C76.8641 329.534 74.4072 325.503 72.9001 323.045C71.3986 320.582 68.2081 317.382 65.8138 315.932L61.463 313.298L59.3189 317.6C56.1455 323.953 55.2469 333.747 57.1749 340.884C58.7332 346.66 59.4156 347.349 66.354 350.101C74.7541 353.437 77.7854 355.623 91.5257 368.288C112.529 387.653 126.002 396.369 142.489 401.254C153.289 404.449 153.562 404.449 162.275 401.089ZM147.153 389.344C146.84 389.067 144.434 388.124 141.812 387.24C137.473 385.785 137.274 385.826 139.685 387.735C141.846 389.456 149.052 391 147.153 389.344ZM34.0278 385.796C34.0278 385.131 36.6326 384.017 39.8231 383.321C45.4136 382.107 45.6354 381.854 46.0336 376.22C46.4373 370.486 46.3577 370.362 41.3018 369.384C36.4619 368.441 35.8591 368.736 31.2524 374.34C27.3282 379.108 25.7586 380.104 23.387 379.326C18.5585 377.735 10.477 366.166 7.167 356.095C4.13001 346.854 4.07883 346.795 4.04471 352.417C4.01627 356.837 5.53476 360.697 10.7158 369.39C19.9917 384.954 22.0846 387.01 28.6192 387.01C31.5937 387.01 34.0278 386.468 34.0278 385.796ZM29.1993 371.806C30.5757 368.889 31.787 364.958 31.8951 363.066C32.0031 361.175 32.7994 359.383 33.6638 359.088C34.5283 358.788 34.9378 357.733 34.5681 356.737C34.2041 355.747 34.8126 354.15 35.9273 353.189C38.4582 351.015 37.2809 347.408 34.0392 347.408C32.1226 347.408 31.4174 345.787 30.6894 339.753C30.1832 335.539 30.1946 329.652 30.7178 326.67C32.5776 316.062 39.715 305.183 44.9416 305.006C46.426 304.959 46.534 304.641 45.334 303.851C44.4241 303.25 42.7406 300.427 41.5918 297.575C39.5956 292.619 39.3226 292.459 35.3871 293.88C29.8818 295.872 23.6372 303.993 20.9017 312.715C19.6789 316.628 16.022 325.244 12.786 331.856C7.25231 343.147 6.96794 344.279 8.13383 350.573C8.8163 354.262 10.3234 359.171 11.4779 361.487C13.9348 366.414 23.4495 377.116 25.3775 377.116C26.1055 377.116 27.823 374.729 29.1993 371.812V371.806ZM312.281 366.761C327.33 359.047 333.864 346.058 327.739 336.028C325.601 332.533 324.856 332.074 324.196 333.848C322.399 338.71 320.704 335.893 321.455 329.292C322.12 323.499 321.756 321.92 318.992 318.59L315.751 314.683L312.953 317.965C311.417 319.769 309.392 323.104 308.46 325.373C306.856 329.257 306.901 329.381 309.222 327.495C310.575 326.393 312.173 324.695 312.776 323.723C314.272 321.295 316.456 321.495 316.456 324.059C316.456 326.593 304.461 336.01 301.18 336.063C299.906 336.081 297.222 333.871 295.22 331.149C291.023 325.444 289.828 325.102 287.804 329.027C285.813 332.881 288.247 337.325 293.371 339.175C295.561 339.965 297.358 341.191 297.358 341.892C297.358 343.884 292.706 343.389 289.771 341.09C285.927 338.079 285.079 338.433 285.079 343.029C285.079 346.064 286.416 348.268 290.192 351.468C294.463 355.081 294.844 355.812 292.513 355.847C290.977 355.877 288.992 355.146 288.099 354.221C287.212 353.301 286.041 353.012 285.489 353.584C283.993 355.134 286.899 359.189 291 361.275C292.996 362.294 294.628 363.726 294.628 364.457C294.628 366.172 293.713 366.148 290.442 364.333C286.422 362.1 287.235 365.117 291.557 368.464C296.733 372.466 301.999 372.036 312.281 366.761ZM230.499 367.103C230.499 365.488 232.342 362.253 234.594 359.919C236.846 357.586 238.677 354.615 238.666 353.313C238.649 352.011 235.583 347.538 231.841 343.371C228.105 339.205 225.045 335.492 225.045 335.121C225.045 334.755 222.986 331.797 220.472 328.556C214.888 321.36 210.975 313.705 201.335 291.128C197.251 281.569 191.286 269.576 188.089 264.484C183.71 257.519 182.209 253.676 182.015 248.956C181.879 245.502 181.321 242.214 180.781 241.654C179.206 240.027 152.294 240.723 149.137 242.473C146.419 243.982 146.368 244.406 148.108 251.36C149.115 255.373 151.452 265.657 153.312 274.214C155.53 284.439 157.89 291.528 160.205 294.905C187.071 334.054 185.752 332.586 217.879 359.088C223.322 363.573 227.775 367.875 227.775 368.641C227.775 369.413 228.389 370.038 229.14 370.038C229.89 370.038 230.505 368.718 230.505 367.103H230.499ZM44.9473 362.188C44.9473 359.43 45.88 355.293 47.0288 353.001C49.1104 348.822 48.5303 347.856 45.243 350.019C44.2762 350.655 43.8838 352.235 44.3615 353.537C44.97 355.181 44.5208 355.894 42.8771 355.894C40.8354 355.894 40.7729 356.212 42.388 358.246C43.7189 359.913 43.8098 360.756 42.7008 361.145C41.8421 361.446 41.4553 362.931 41.8364 364.451C42.9852 369.001 44.9473 367.575 44.9473 362.188ZM278.988 357.485C277.794 353.578 276.094 353.696 270.537 358.092C264.998 362.471 264.861 363.738 269.73 365.518C272.846 366.655 274.023 366.349 276.696 363.685C278.988 361.398 279.648 359.625 278.988 357.485ZM522.908 357.491L525.894 354.132L522.482 355.187C520.611 355.77 519.075 356.33 519.075 356.43C519.075 356.537 517.232 358.776 514.98 361.422L510.885 366.219L515.401 363.532C517.886 362.059 521.265 359.336 522.908 357.491ZM265.458 358.11C267.33 353.926 265.248 350.761 262.291 353.301C259.771 355.47 258.361 353.643 260.493 350.979C262.325 348.687 261.733 348.351 256.638 348.787C254.061 349.011 253.601 348.539 254.272 346.353C254.926 344.214 254.454 343.672 252.008 343.76C249.938 343.837 249.034 343.147 249.267 341.662C249.466 340.342 247.731 338.521 244.967 337.154C241.185 335.286 239.4 335.156 235.373 336.435L230.419 338.008L235.458 343.359C240.093 348.28 240.952 348.646 246.179 347.903C251.559 347.137 252.122 347.414 256.871 353.166C259.629 356.501 261.881 359.754 261.881 360.397C261.881 362.76 263.98 361.422 265.458 358.11ZM273.278 351.274C275.496 349.594 275.468 349.294 272.801 346.324C269.712 342.888 267.967 342.393 266.658 344.579C266.192 345.357 267.079 345.994 268.626 345.994C270.167 345.994 271.436 346.63 271.436 347.408C271.436 348.186 270.822 348.822 270.071 348.822C269.32 348.822 268.706 349.777 268.706 350.944C268.706 353.537 270.15 353.643 273.278 351.274ZM282.361 346.73C281.383 344.066 281.337 341.314 282.23 338.368C285.023 329.133 284.619 326.935 279.256 322.055C275.32 318.472 274.16 316.362 274.16 312.785C274.16 310.239 275.081 307.363 276.207 306.397C277.834 304.994 278.232 301.111 278.141 287.48L278.022 270.33L272.732 281.916C269.826 288.293 266.198 298.718 264.668 305.083C263.138 311.453 260.693 318.661 259.231 321.112C257.775 323.564 256.751 326.782 256.962 328.261C257.383 331.243 265.555 338.928 268.308 338.928C270.93 338.928 280.985 348.816 280.985 351.392C280.985 352.942 281.423 353.177 282.401 352.17C283.379 351.156 283.362 349.471 282.361 346.73ZM45.4535 344.296C44.6402 342.935 40.2951 342.799 39.0383 344.096C38.5435 344.609 38.7994 345.852 39.607 346.866C40.7444 348.28 41.6544 348.327 43.6051 347.066C44.9928 346.164 45.8231 344.921 45.4535 344.296ZM263.912 340.318C263.439 339.523 262.484 339.246 261.784 339.694C259.891 340.902 260.243 341.75 262.643 341.75C263.809 341.75 264.384 341.108 263.912 340.318ZM35.7852 337.513C34.8923 333.977 35.5747 333.977 41.1539 337.507C43.6108 339.057 47.3132 340.33 49.372 340.336C52.9492 340.336 53.1255 340.018 53.1255 333.524C53.1255 329.775 54.0867 323.352 55.2639 319.25C57.2715 312.231 57.2545 311.677 54.9227 309.845C50.4924 306.362 44.1966 307.346 40.3179 312.119C34.3747 319.439 31.6733 333.176 34.9776 339.281C36.0638 341.285 36.4961 340.336 35.7852 337.513ZM48.4279 322.615C46.972 321.472 44.3672 320.541 42.6326 320.541C40.898 320.541 39.4819 319.904 39.4819 319.126C39.4819 316.922 46.716 317.459 50.0942 319.91C53.0289 322.043 54.1891 324.825 52.1018 324.737C51.5388 324.713 49.8895 323.758 48.4336 322.615H48.4279ZM258.475 336.093C258.008 335.315 257.013 334.679 256.262 334.679C255.511 334.679 255.278 335.315 255.745 336.093C256.205 336.871 257.201 337.507 257.951 337.507C258.702 337.507 258.935 336.871 258.475 336.093ZM251.917 333.618C251.991 329.322 249.739 327.495 246.759 329.428C243.386 331.614 243.466 332.492 247.214 334.372C251.474 336.5 251.872 336.435 251.917 333.618ZM240.935 329.463C245.508 326.357 244.979 324.253 239.883 325.308C237.534 325.797 232.518 326.192 228.73 326.192H221.837L225.13 329.823C227.866 332.846 229.202 333.305 233.07 332.551C235.629 332.056 239.166 330.665 240.935 329.463ZM306.708 322.869C314.118 307.263 318.338 303.462 322.177 308.931C324.276 311.919 334.194 319.869 334.194 318.566C334.194 315.761 327.54 307.623 324.645 306.88C322.769 306.397 320.784 305.743 320.238 305.425C318.526 304.435 325.209 295.117 327.648 295.1C331.373 295.07 336.924 298.194 336.924 300.315C336.924 302.496 342.071 313.469 343.089 313.469C344.886 313.469 343.408 306.426 341.019 303.568C339.518 301.771 338.289 299.873 338.289 299.343C338.289 297.168 340.16 296.661 341.565 298.459C343.243 300.604 352.001 303.969 353.053 302.873C353.429 302.484 352.706 300.993 351.449 299.555C348.97 296.708 337.914 293.668 328.678 293.29C323.434 293.072 322.41 293.62 317.889 299.06C313.208 304.694 304.28 321.543 302.198 328.673C300.526 334.384 302.357 332.033 306.708 322.869ZM308.204 306.751C308.3 304.264 305.536 304.552 302.573 307.328C301.197 308.619 299.667 309.261 299.178 308.754C298.024 307.558 302.716 302.154 304.899 302.154C307.197 302.154 308.482 294.428 306.907 290.132C306.196 288.187 304.78 286.596 303.768 286.596C301.322 286.596 295.897 292.683 295.396 295.99C295.163 297.528 294.082 298.447 292.786 298.205C291.563 297.976 289.265 298.512 287.678 299.396C285.421 300.645 284.954 301.883 285.563 305.018C286.262 308.636 285.995 309.008 282.827 308.778C280.706 308.619 278.71 309.538 277.766 311.106C276.446 313.298 276.992 314.4 281.388 318.378C284.681 321.366 287.502 322.816 289.14 322.368C290.721 321.943 292.945 322.969 294.879 325.02L298.041 328.367L303.091 318.443C305.866 312.986 308.17 307.723 308.204 306.751ZM293.263 313.469C293.263 312.691 293.912 312.054 294.708 312.054C295.504 312.054 295.8 311.459 295.368 310.734C294.935 310.01 295.208 309.019 295.97 308.53C297.529 307.534 297.768 309.296 296.528 312.644C295.612 315.113 293.263 315.702 293.263 313.469ZM327.347 317.995C323.61 315.284 320.551 312.52 320.551 311.854C320.551 311.182 319.885 310.64 319.066 310.64C318.247 310.64 319.118 312.532 320.994 314.842C322.871 317.158 325.14 321.342 326.033 324.147L327.654 329.245L330.896 326.086L334.143 322.927L327.347 317.995ZM510.459 322.209C510.971 321.678 508.974 319.456 506.023 317.264L500.654 313.28V316.793C500.654 323.157 502.047 325.079 505.955 324.077C507.917 323.576 509.941 322.733 510.459 322.209ZM257.445 317.358C258.924 314.052 261.199 306.574 262.501 300.739C263.917 294.422 268.399 282.824 273.586 272.063C289.874 238.271 294.327 212.094 286.501 196.194C283.515 190.129 278.169 185.15 273.29 183.877C269.519 182.898 254.243 189.204 241.072 197.19C236.055 200.225 225.949 205.139 218.607 208.11C211.265 211.08 204.582 214.044 203.746 214.704C202.91 215.358 201.887 219.378 201.46 223.632C200.527 232.979 194.647 244.813 189.312 248.083C184.256 251.177 184.472 253.676 190.495 261.691C194.3 266.747 195.778 267.879 196.603 266.352C197.2 265.25 202.16 262.923 207.614 261.19C213.073 259.457 218.92 257.354 220.609 256.523C224.107 254.79 226.694 256.363 223.64 258.361C222.537 259.086 218.567 260.724 214.814 261.997C211.06 263.27 205.1 265.575 201.568 267.119L195.141 269.918L200.015 280.025C206.8 294.08 206.755 294.033 211.879 291.287C221.763 285.989 236.84 269.511 239.343 261.261C241.686 253.541 244.302 248.343 245.474 249.091C246.201 249.557 246.122 251.643 245.274 254.165C242.573 262.198 245.007 259.705 251.292 248.001C257.366 236.692 263.673 221.505 262.712 220.509C262.45 220.238 256.837 226.125 250.228 233.586C243.619 241.047 236.442 248.461 234.281 250.058C226.768 255.603 228.935 251.378 238.899 241.059C244.416 235.354 251.633 227.51 254.943 223.632C258.253 219.755 262.239 215.812 263.809 214.869C267.745 212.494 272.732 212.63 273.659 215.134C274.569 217.598 270.349 225.1 265.265 230.044C263.28 231.977 259.51 238.012 256.876 243.457C254.249 248.903 250.711 255.267 249.011 257.601C245.274 262.74 243.199 269.181 241.942 279.524C241.424 283.802 239.815 290.167 238.37 293.662C232.12 308.784 230.584 316.256 232.945 320.099C233.508 321.024 237.335 322.02 241.447 322.309C245.559 322.603 250.239 322.957 251.843 323.104C254.056 323.299 255.415 321.908 257.445 317.352V317.358ZM229.14 316.115C229.14 312.715 231.193 304.965 234.059 297.539C238.234 286.719 242.05 270.012 240.702 268.45C240.48 268.197 237.796 271.379 234.73 275.522C231.665 279.665 227.121 284.61 224.63 286.501C220.262 289.825 220.097 290.308 219.801 300.645C219.636 306.527 219.17 312.455 218.772 313.817C217.293 318.826 219.483 321.949 224.453 321.949C229.032 321.949 229.14 321.82 229.14 316.115ZM518.398 319.126C518.398 318.348 517.13 317.712 515.589 317.712C514.042 317.712 513.155 318.348 513.621 319.126C514.087 319.904 515.35 320.541 516.43 320.541C517.511 320.541 518.398 319.904 518.398 319.126ZM340.24 317.877C340.649 317.193 339.455 314.3 337.59 311.447C335.724 308.601 334.2 305.047 334.2 303.551C334.2 302.06 332.92 300.127 331.362 299.26C329.047 297.981 328.177 298.17 326.687 300.274C325.106 302.507 325.209 303.056 327.449 304.305C330.6 306.061 336.93 314.724 336.93 317.276C336.93 319.368 339.114 319.763 340.24 317.877ZM67.7815 308.165C66.974 305.248 64.6194 300.952 62.555 298.618C60.4905 296.284 58.3578 291.829 57.8175 288.717C57.2772 285.606 56.2535 282.665 55.5369 282.182C54.8203 281.698 54.2857 279.471 54.3483 277.231C54.4165 274.992 54.4564 270.749 54.445 267.796C54.4222 260.577 57.5843 250.016 61.8839 242.95C66.1664 235.92 66.1664 235.955 62.3104 230.964L59.2166 226.956L52.7786 240.157C45.5729 254.931 41.9672 268.934 42.0582 281.763C42.1321 292.224 43.4686 296.131 48.5587 300.71C51.4535 303.315 67.3323 313.174 69.0384 313.433C69.1579 313.451 68.5891 311.082 67.7815 308.165ZM216.702 299.679C216.884 292.96 216.963 293.037 212.152 295.306C207.926 297.304 207.926 297.339 211.748 306.314C214.711 313.28 214.848 313.392 215.678 309.609C216.156 307.452 216.616 302.979 216.702 299.679ZM163.566 309.308C165.716 307.9 165.613 307.705 158.078 298.435C154.631 294.198 151.338 283.03 149.251 268.462C148.609 264.001 147.579 262.045 145.441 261.202C141.488 259.652 141.05 260.412 143.587 264.419C144.758 266.276 146.152 270.277 146.681 273.306C147.209 276.336 148.404 280.408 149.325 282.353C150.252 284.297 151.446 288.399 151.987 291.469C153.039 297.481 158.965 310.652 160.609 310.617C161.155 310.605 162.485 310.015 163.566 309.308ZM497.247 304.994C501.126 303.362 501.189 303.215 498.436 302.118C488.853 298.288 483.467 276.112 487.625 257.601C490.428 245.107 494.819 238.018 500.859 236.226L505.431 234.877L506.227 214.793L496.281 217.651C481.295 221.959 447.097 221.923 431.207 217.586C424.9 215.859 418.9 213.726 417.871 212.842C416.841 211.958 415.658 211.581 415.243 212.017C414.225 213.072 414.481 261.832 415.579 275.988L416.454 287.303L428.881 293.373C443.048 300.292 452.466 303.132 469.96 305.766C483.524 307.805 491.065 307.593 497.247 304.994ZM288.503 295.076C291.119 294.18 293.263 292.831 293.263 292.076C293.263 291.322 294.725 289.201 296.505 287.35C299.337 284.415 299.855 282.182 300.651 269.382C301.152 261.349 302.135 250.635 302.841 245.579C304.74 231.971 304.456 216.773 302.039 202.44C300.856 195.439 299.525 188.756 299.087 187.589C298.649 186.423 298.405 184.937 298.547 184.289C298.905 182.621 293.883 174.465 290.602 171.389C287.917 168.873 287.65 168.943 279.495 174.501L271.134 180.199L275.832 181.802C281.525 183.753 286.478 189.004 290.539 197.39C295.965 208.599 293.508 235.277 285.455 252.633C282.156 259.752 281.804 262.198 281.377 280.932C281.053 295.459 281.326 300.751 282.327 299.072C283.1 297.769 285.881 295.972 288.497 295.076H288.503ZM506.967 288.01C508.747 285.287 511.579 281.068 513.274 278.634C524.813 262.021 558.396 212.094 558.806 210.933C559.085 210.155 557.287 208.157 554.814 206.501L550.309 203.489L546.288 206.436C544.082 208.063 537.974 212.936 532.719 217.28C527.469 221.617 521.498 226.267 519.456 227.599C513.257 231.659 506.279 239.668 501.86 247.783C499.556 252.014 497.088 255.108 496.383 254.654C495.666 254.195 496.639 250.959 498.578 247.364C500.495 243.811 501.752 240.581 501.371 240.187C499.812 238.572 495.081 245.043 492.368 252.492C489.996 259.015 489.575 262.728 490.007 273.348C490.468 284.598 491.026 287.038 494.33 292.218C498.066 298.07 498.169 298.123 500.933 295.559C502.48 294.127 505.192 290.733 506.967 288.01ZM37.025 289.424C38.4695 289.424 39.3112 288.847 38.8904 288.14C37.6676 286.095 33.1747 287.957 29.7169 291.941L26.532 295.612L30.4676 292.518C32.6287 290.815 35.5861 289.424 37.025 289.424ZM337.442 285.865C340.16 284.692 342.384 283.461 342.384 283.136C342.384 282.123 333.774 285.058 332.312 286.566C330.407 288.546 331.652 288.375 337.442 285.865ZM360.805 283.82C363.341 282.742 363.262 282.553 359.69 281.091C355.334 279.312 352.672 279.17 347.992 280.467C344.858 281.333 344.915 281.445 349.357 283.107C354.941 285.199 357.222 285.346 360.805 283.82ZM327.358 271.88C327.341 268.692 326.738 265.133 326.01 263.966C325.282 262.799 324.68 262.186 324.668 262.598C324.657 263.017 323.394 267.054 321.859 271.574C319.698 277.95 319.43 280.243 320.67 281.787C323.269 285.034 327.381 278.946 327.358 271.88ZM69.0839 278.28C69.9768 277.785 67.6792 277.39 63.9711 277.39C57.2943 277.402 55.0251 278.734 59.6147 279.948C62.0716 280.596 66.2232 279.866 69.0839 278.28ZM340.996 274.615C342.97 271.309 343.783 267.967 343.493 264.361L343.072 259.015L340.843 262.551C338.858 265.704 336.156 279.524 337.527 279.524C337.829 279.524 339.387 277.314 340.996 274.615ZM406.075 261.326C396.151 247.353 390.026 225.477 392.648 213.372C393.677 208.634 393.552 207.75 391.965 208.381C390.907 208.805 389.093 211.05 387.927 213.378C379.573 230.133 390.521 266.37 407.105 276.872L411.29 279.524L411.706 274.685C412.041 270.808 410.921 268.15 406.075 261.326ZM74.7825 270.159C81.7266 266.571 86.9134 260.418 89.1485 253.116C89.8878 250.7 89.4215 249.851 86.9589 249.103C85.2414 248.584 80.6063 245.909 76.6707 243.163C70.4318 238.808 69.209 238.413 67.2413 240.104C64.0792 242.815 58.8241 255.032 57.8118 262.027C56.0658 274.084 61.8327 276.848 74.7825 270.159ZM411.751 237.523C411.575 213.408 411.45 212.382 408.418 209.235C403.601 204.244 398.619 204.916 396.214 210.88C393.319 218.063 393.762 224.116 398.17 237.546C401.503 247.706 409.323 262.551 411.336 262.551C411.666 262.551 411.854 251.289 411.751 237.523ZM145.867 255.998C146.959 254.867 141.647 251.236 138.9 251.236C134.72 251.236 128.379 242.479 122.504 228.606C113.035 206.242 109.969 200.177 101.16 186.375C93.4821 174.353 92.703 172.45 92.703 165.684C92.703 161.046 93.4196 157.622 94.6025 156.603C96.212 155.218 96.1097 153.898 93.9201 147.928C92.4983 144.056 91.3381 139.624 91.3381 138.075C91.3381 133.678 89.5864 134.727 85.6622 141.451C79.6849 151.717 74.9645 168.313 74.9645 179.091V188.656L86.5665 199.57C98.0774 210.408 100.102 213.779 96.0585 215.388C93.4082 216.443 91.5257 214.681 93.7608 213.243C95.6433 212.04 90.6954 206.807 80.1172 198.822C76.5683 196.146 73.2754 192.74 72.792 191.261C71.0972 186.034 59.0744 214.857 60.4962 220.739C61.6564 225.536 68.3901 233.286 76.0565 238.648C84.7124 244.701 88.2044 245.921 96.2234 245.708C101.985 245.555 105.209 246.622 115.327 252.026C127.105 258.314 127.782 258.497 136.318 257.636C141.175 257.153 145.469 256.411 145.867 255.998ZM144.554 246.18C144.554 244.866 143.621 244.141 142.279 244.412C138.855 245.101 138.383 248.408 141.71 248.408C143.382 248.408 144.554 247.494 144.554 246.18ZM192.605 239.102C194.647 236.049 197.007 230.374 197.854 226.485C202.865 203.454 203.365 202.505 214.728 194.249C219.784 190.571 221.883 185.368 222.827 174.153C225.09 147.303 227.798 128.074 230.38 120.448C233.127 112.351 234.133 102.715 232.416 100.941C231.966 100.476 229.492 102.273 226.916 104.949C223.686 108.296 220.973 109.805 218.18 109.805C214.654 109.805 214.137 110.312 214.137 113.789C214.137 116.311 212.846 118.945 210.616 120.949C207.557 123.707 207.221 124.838 208.012 129.7C209.041 136 205.788 143.096 197.388 152.878C192.946 158.058 192.451 158.259 186.042 157.558C182.357 157.157 173.945 154.216 167.342 151.028C154.29 144.722 155.456 146.207 147.863 126.217C146.419 122.404 144.013 118.586 142.517 117.731C141.027 116.871 138.337 115.056 136.535 113.694C134.737 112.333 131.524 111.219 129.391 111.219C124.716 111.219 122.009 115.067 120.684 123.601C120.172 126.907 119.279 129.311 118.705 128.946C117.647 128.268 119.012 116.735 120.661 112.404C121.276 110.789 120.679 109.769 118.728 109.127C117.175 108.62 115.532 106.652 115.071 104.76C114.013 100.387 113.564 100.429 106.057 105.585C95.4386 112.875 91.412 128.091 95.9618 143.75L97.8101 150.109L100.034 144.634C101.257 141.622 102.252 138.599 102.252 137.915C102.252 137.232 102.866 136.678 103.617 136.678C104.368 136.678 104.982 137.214 104.982 137.868C104.982 139.854 99.9485 154.039 97.4518 159.066C94.1191 165.802 95.666 173.399 102.263 182.651C109.281 192.499 116.328 205.864 122.123 220.326C127.759 234.388 133.151 242.856 135.795 241.801C136.853 241.383 137.371 240.464 136.95 239.762C136.535 239.061 137.211 238.083 138.462 237.582C139.714 237.087 141.13 237.34 141.619 238.147C142.205 239.12 145.008 239.208 149.837 238.413C159.704 236.792 160.353 235.649 150.832 236.668C141.477 237.67 140.294 235.059 149.518 233.751C159.841 232.284 162.684 232.567 161.792 234.971C161.263 236.415 161.865 237.093 163.697 237.093C165.244 237.093 166.381 236.138 166.381 234.841C166.381 232.961 167.883 232.673 175.543 233.073L184.711 233.557L184.296 226.485C183.773 217.468 180.622 204.786 178.176 201.869C177.136 200.625 174.889 195.156 173.189 189.711C169.737 178.673 164.465 167.063 162.258 165.649C159.903 164.14 153.898 153.574 154.438 151.888C155.445 148.765 170.305 172.226 174.451 183.488C176.766 189.764 178.66 195.545 178.66 196.335C178.66 197.119 179.78 199.453 181.151 201.515C186.247 209.194 188.982 231.188 186.167 241.872C184.66 247.6 187.828 246.239 192.605 239.102ZM146.197 142.96C142.972 140.32 137.291 137.037 133.577 135.67C126.445 133.042 124.165 130.024 130.569 131.68C139.321 133.943 154.102 143.449 154.102 146.82C154.102 148.83 152.248 147.922 146.197 142.96ZM270.031 218.128C269.985 215.246 269.912 215.252 267.301 218.505C265.822 220.344 264.617 222.825 264.617 224.027C264.617 225.872 265.043 225.813 267.347 223.65C268.848 222.248 270.054 219.761 270.031 218.128ZM491.082 210.933C509.367 206.943 512.199 201.845 499.118 196.465C481.932 189.393 441.086 189.328 425.321 196.347C413.167 201.757 413.611 205.723 426.822 209.76C442.656 214.604 471.82 215.134 491.082 210.933ZM430.274 207.467C424.428 206.018 422.892 204.815 422.892 201.698C422.892 197.019 428.079 195.38 442.673 195.445C453.035 195.486 457.414 196.105 460.877 198.009C465.257 200.425 465.342 200.625 463.061 203.236C461.753 204.733 458.477 206.595 455.776 207.373C450.203 208.976 436.57 209.029 430.274 207.467ZM457.937 203L461.776 201.439L458.438 200.113C454.531 198.563 434.119 198.162 429.893 199.553C426.367 200.708 426.117 202.7 429.376 203.584C434.273 204.91 454.235 204.503 457.937 203ZM221.269 203.024C228.981 199.847 236.203 196.423 237.329 195.41C238.455 194.396 242.675 191.856 246.708 189.758C250.734 187.666 253.498 185.444 252.844 184.831C252.19 184.213 247.396 181.083 242.192 177.872C232.757 172.049 226.495 170.44 226.325 173.799C225.659 186.552 223.396 191.031 213.796 198.586C209.479 201.981 205.947 205.67 205.947 206.778C205.947 207.892 206.243 208.799 206.601 208.799C206.965 208.799 213.562 206.2 221.269 203.024ZM581.504 197.979C582.124 197.578 579.422 195.557 575.504 193.483C571.58 191.408 564.886 186.381 560.626 182.309L552.886 174.913L552.027 182.309C551.555 186.381 551.162 192.127 551.157 195.08C551.145 200.018 551.606 200.667 556.793 203.077C562.423 205.688 562.474 205.688 571.403 202.199C576.334 200.278 580.878 198.38 581.504 197.979ZM412.451 201.439C412.883 199.724 413.071 198.15 412.872 197.944C412.672 197.732 410.113 198.25 407.184 199.087L401.861 200.613L405.217 202.535C409.954 205.251 411.546 205.01 412.451 201.439ZM592.076 191.167C592.076 187.754 584.672 179.704 582.038 180.252C578.74 180.942 575.697 178.025 578.108 176.481C581.424 174.353 566.234 164.959 559.477 164.959C557.236 164.959 555.018 165.596 554.558 166.374C554.091 167.152 554.978 167.788 556.52 167.788C559.813 167.788 560.324 170.199 557.179 170.864C555.581 171.206 556.554 172.998 560.933 177.813C567.724 185.279 574.833 190.029 582.965 192.528C589.119 194.42 592.076 193.978 592.076 191.167ZM578.433 189.004C578.433 188.226 579.32 187.589 580.4 187.589C581.481 187.589 582.744 188.226 583.21 189.004C583.671 189.782 582.789 190.418 581.242 190.418C579.695 190.418 578.433 189.782 578.433 189.004ZM583.153 186.081C582.658 185.25 582.596 184.219 583.011 183.782C584.137 182.621 587.981 184.437 587.981 186.128C587.981 188.049 584.302 188.008 583.153 186.081ZM574.969 184.666C573.712 182.557 575.168 181.413 577.779 182.451C578.984 182.934 579.587 183.965 579.121 184.749C578.017 186.605 576.101 186.564 574.969 184.666ZM566.779 181.838C566.285 181.007 566.16 180.034 566.506 179.681C567.456 178.697 571.614 180.647 571.614 182.079C571.614 183.853 567.866 183.665 566.779 181.838ZM568.884 177.689C568.884 176.911 569.805 176.274 570.931 176.274C572.057 176.274 572.979 176.911 572.979 177.689C572.979 178.467 572.057 179.103 570.931 179.103C569.805 179.103 568.884 178.467 568.884 177.689ZM563.424 174.153C563.424 172.856 564.192 172.061 565.13 172.385C567.064 173.051 566.848 175.326 564.789 176.039C564.038 176.298 563.424 175.449 563.424 174.153ZM569.509 173.351C569.015 172.52 568.952 171.489 569.367 171.053C570.493 169.892 574.338 171.707 574.338 173.399C574.338 175.32 570.658 175.284 569.509 173.351ZM561.32 169.108C560.825 168.277 560.762 167.246 561.183 166.81C562.304 165.649 566.154 167.464 566.154 169.155C566.154 171.077 562.474 171.041 561.32 169.108ZM260.835 179.109C263.292 177.553 266.374 176.28 267.688 176.28C269.002 176.274 270.076 175.567 270.076 174.707C270.076 173.846 271.066 173.534 272.272 174.017C273.83 174.636 274.245 174.283 273.699 172.797C273.273 171.648 273.512 170.328 274.228 169.869C274.945 169.409 275.531 169.709 275.531 170.534C275.531 171.354 276.088 172.031 276.77 172.031C277.447 172.031 277.726 170.918 277.385 169.556C276.952 167.829 278.226 166.262 281.605 164.382C284.266 162.897 286.45 161.2 286.45 160.604C286.45 160.015 283.532 156.137 279.967 151.988C271.646 142.312 264.617 132.912 264.611 131.451C264.605 130.82 263.041 128.398 261.13 126.064C257.752 121.933 257.684 121.915 258.514 125.357C258.986 127.302 260.829 132.052 262.609 135.912C264.395 139.778 265.521 143.272 265.117 143.691C263.479 145.382 257.889 136.259 255.022 127.213C250.086 111.667 241.691 98.4838 236.721 98.4838C235.293 98.4838 235.157 99.7214 236.112 104.112C237.108 108.709 236.721 111.419 233.974 118.969C231.329 126.259 226.433 157.21 226.416 166.727C226.416 167.311 227.798 167.788 229.487 167.794C231.176 167.794 237.466 170.923 243.472 174.748C249.472 178.573 254.829 181.749 255.375 181.814C255.921 181.879 258.378 180.659 260.835 179.109ZM196.586 148.971C198.15 145.889 198.139 145.883 195.232 148.559C193.623 150.044 192.304 151.829 192.304 152.531C192.304 154.523 194.851 152.407 196.586 148.971ZM196.177 142.883C203.615 134.692 204.776 131.256 198.332 136.513C195.631 138.711 192.73 139.501 187.316 139.501C178.631 139.501 173.757 136.719 160.853 124.402C156.11 119.87 152.743 117.436 153.369 118.992C154 120.548 155.803 125.575 157.378 130.166C160.085 138.057 160.648 138.699 167.746 141.935C171.869 143.82 177.397 146.573 180.025 148.058C182.652 149.537 185.74 150.763 186.884 150.78C188.032 150.798 192.213 147.244 196.177 142.883ZM167.746 145.158C166.62 144.404 165.084 143.785 164.334 143.785C163.583 143.785 163.89 144.404 165.016 145.158C166.142 145.913 167.678 146.531 168.429 146.531C169.179 146.531 168.872 145.913 167.746 145.158ZM159.17 139.147C157.378 136.619 154.813 131.368 153.465 127.479C152.118 123.589 150.389 119.77 149.627 118.992C148.694 118.038 148.574 118.497 149.274 120.407C149.837 121.962 151.52 126.901 153.016 131.38C154.506 135.865 157.031 140.479 158.629 141.634C162.764 144.64 162.832 144.321 159.17 139.147ZM197.416 132.364L200.482 129.907L196.791 128.946C193.253 128.027 185.843 121.662 186.98 120.524C187.282 120.218 191.672 120.424 196.74 120.972C206.476 122.027 208.859 120.972 201.619 118.821C195.892 117.118 194.357 113.217 199.97 114.637C202.131 115.179 205.589 115.981 207.653 116.411L211.407 117.195V108.632C211.407 98.2186 209.49 96.4153 204.685 102.303C200.345 107.612 193.748 111.213 188.357 111.213C183.005 111.213 177.352 106.004 176.965 100.717C176.692 97.0164 175.521 96.0381 165.721 91.3648C150.974 84.3224 148.557 83.6211 147.13 85.9607C144.758 89.8443 146.049 94.2289 151.498 100.759C155.917 106.045 156.929 108.231 156.349 111.225C155.746 114.372 156.707 116.081 162.025 121.297C172.427 131.498 174.247 132.777 181.048 134.639C188.317 136.625 192.901 135.988 197.422 132.364H197.416ZM152.413 112.274C154.239 109.923 152.487 105.573 148.148 101.707C144.002 98.0183 142.557 93.1387 143.615 86.385C144.036 83.7036 143.803 81.5113 143.098 81.5113C142.398 81.5113 141.824 82.7843 141.824 84.3401C141.824 85.8959 141.226 87.1688 140.499 87.1688C139.771 87.1688 139.566 88.2119 140.038 89.4849C140.624 91.076 140.294 91.5946 138.969 91.135C133.708 89.3198 137.826 77.4745 144.929 73.9798C151.242 70.874 157.407 70.9919 167.962 74.4218C179.081 78.0343 185.581 77.9047 195.716 73.856L203.9 70.5912L195.033 69.6424C179.485 67.9864 163.481 65.8294 144.627 62.8475L126.292 59.9539L123.824 63.1127C120.752 67.0434 120.673 70.6796 123.613 73.2078C127.134 76.2369 129.505 83.1909 128.004 86.0904C125.928 90.1154 124.734 88.9898 124.574 82.8727C124.495 79.7316 124.114 76.8262 123.721 76.4255C122.606 75.2645 112.841 79.926 109.435 83.2439C107.473 85.1533 106.347 87.8996 106.347 90.7814C106.347 97.0341 108.872 98.9199 113.74 96.3033C118.91 93.5217 122.754 93.7751 126.667 97.1519C130.267 100.258 129.431 102.951 125.723 100.193C121.594 97.1225 119.837 96.6628 118.301 98.2599C117.198 99.4032 117.215 100.788 118.364 103.399C119.734 106.522 120.787 106.97 126.724 106.97C131.717 106.97 134.845 107.907 138.542 110.506C143.962 114.319 150.201 115.115 152.413 112.274ZM199.123 103.44C200.88 101.501 201.858 99.4326 201.295 98.8433C200.732 98.2599 195.562 97.7766 189.807 97.7766C180.104 97.7766 179.376 97.9829 179.78 100.605C180.429 104.825 183.966 106.97 190.279 106.97C194.533 106.97 196.711 106.104 199.123 103.44ZM221.308 105.456C223.071 104.625 225.25 102.727 226.143 101.236C227.553 98.9022 227.331 98.4249 224.527 97.6941C222.747 97.2286 219.523 97.0577 217.367 97.3111C214.342 97.6706 213.545 98.419 213.858 100.605C214.842 107.477 215.763 108.072 221.308 105.456ZM209.001 94.6591C207.306 94.3173 204.85 94.3291 203.547 94.6827C202.239 95.0363 203.627 95.3133 206.63 95.3015C209.633 95.2838 210.702 94.995 209.001 94.6591ZM165.801 85.7368C155.354 81.0929 146.55 77.557 146.243 77.8752C145.458 78.6885 149.297 80.6863 161.018 85.5423C166.597 87.8524 173.001 90.7519 175.248 91.9836C177.5 93.2153 180.571 94.2171 182.072 94.2053C183.574 94.1935 176.254 90.3806 165.801 85.7368ZM228.804 89.1725C231.244 88.7777 233.235 87.929 233.235 87.2867C233.235 86.108 214.734 70.1963 213.363 70.1963C212.96 70.1963 206.863 72.7422 199.811 75.8538C185.166 82.3187 179.979 82.7725 168.548 78.6118C164.169 77.0148 158.453 75.901 155.854 76.1367C151.623 76.5198 152.703 77.221 166.114 82.7784C174.628 86.3025 184.853 89.4495 189.778 90.0624C198.23 91.1055 219.915 90.6105 228.804 89.1725ZM239.388 85.7368C241.083 82.8962 240.435 75.6417 238.291 73.414C236.874 71.9466 233.428 71.0744 228.531 70.933C224.362 70.8151 220.956 70.8976 220.956 71.1157C220.956 71.3396 224.334 74.1625 228.463 77.392C232.586 80.6214 235.964 84.1456 235.964 85.2182C235.964 87.4929 238.143 87.823 239.388 85.7368ZM254.09 65.9355C276.179 63.4604 283.163 57.9443 273.113 50.9255C268.268 47.5427 256.046 42.8105 244.154 39.7224C232.222 36.6226 231.875 36.7405 231.875 43.9656C231.875 50.0238 231.676 50.3243 226.757 51.8389C223.942 52.7052 216.27 53.7778 209.701 54.2257C200.044 54.8798 197.763 54.6559 197.775 53.0706C197.786 51.6209 200.209 51.0197 206.982 50.7781C217.407 50.4069 229.145 47.9022 229.145 46.0518C229.145 45.3681 227.57 45.433 225.642 46.1873C221.087 47.9847 205.947 47.9788 205.947 46.1814C205.947 44.4959 209.598 43.6473 219.932 42.9283C224.249 42.6337 228.156 41.9913 228.628 41.5081C229.094 41.0248 229.049 36.4753 228.526 31.4071C227.57 22.1901 227.57 22.1901 224.442 24.3175C219.358 27.771 199.612 29.4152 182.897 27.7827C166.211 26.1503 157.543 23.8343 151.543 19.4085L147.42 16.3676L146.533 21.2707C146.044 23.9639 146.044 26.8398 146.533 27.659C149.536 32.6918 172.694 41.9147 182.328 41.9147C186.98 41.9147 189.443 43.9479 186.298 45.1972C183.363 46.3641 165.119 42.0915 157.515 38.4554C153.761 36.6638 149.302 33.8115 147.608 32.1202C145.026 29.5448 144.389 29.3916 143.723 31.189C142.324 34.9725 143.752 36.3869 153.443 40.8127C163.85 45.5685 175.549 48.8569 182.334 48.9335C184.728 48.963 187.066 49.6231 187.532 50.401C190.262 54.98 159.596 48.7921 148.916 42.6042C145.577 40.6653 142.068 39.086 141.118 39.086C138.792 39.086 137.695 35.7622 139.202 33.2988C139.867 32.2027 140.425 30.0929 140.436 28.6078C140.459 26.0383 139.515 25.9558 119.649 26.8163C90.849 28.0597 77.3532 32.2616 81.266 38.7559C90.7295 54.4791 201.272 71.8641 254.084 65.9355H254.09ZM254.044 52.6934C250.854 51.0846 248.243 48.9512 248.243 47.9612C248.243 46.9652 247.322 46.1519 246.201 46.1519C244.001 46.1519 243.415 43.9656 245.292 42.7633C245.923 42.3626 250.217 43.8889 254.846 46.1519C263.292 50.2949 265.908 52.8349 260.186 51.338C257.394 50.6131 257.331 50.7074 259.504 52.3929C261.938 54.2846 262.706 56.2235 260.863 55.8404C260.306 55.7225 257.235 54.3082 254.044 52.6934ZM90.9343 40.9541C85.3608 38.5556 84.4622 34.5953 89.2679 33.6347C91.5428 33.1809 91.6793 33.4226 90.1779 35.2966C88.6594 37.1942 89.1712 37.7305 93.9769 39.2215C97.031 40.1703 99.5277 41.4786 99.5277 42.1328C99.5277 43.8595 96.8376 43.4882 90.9343 40.9541ZM215.456 23.4041C220.057 22.3845 222.867 20.8877 223.879 18.9193C225.87 15.0652 223.873 13.5565 211.026 9.18961C202.393 6.25478 198.582 5.84814 180.03 5.84814C165.181 5.84814 157.566 6.42568 154.449 7.78702C144.827 11.9948 151.668 18.5598 169.913 22.6144C181.191 25.119 205.822 25.5492 215.456 23.4041ZM184.956 438.517C183.699 435.123 183.881 434.863 187.185 435.353C191.109 435.93 192.252 440.757 188.465 440.757C186.992 440.757 185.411 439.749 184.956 438.517ZM503.446 437.657C500.495 434.374 499.761 430.856 502.03 430.856C502.781 430.856 503.395 431.823 503.395 433.013C503.395 435.641 508.787 437.928 514.997 437.928C517.534 437.928 519.985 438.564 520.451 439.342C520.974 440.22 518.432 440.757 513.763 440.757C507.769 440.757 505.659 440.12 503.446 437.657ZM526.212 438.01C525.291 434.357 525.553 434.215 531.974 434.846C537.598 435.406 539.828 437.928 534.698 437.928C533.151 437.928 532.264 438.564 532.73 439.342C533.202 440.138 532.116 440.757 530.239 440.757C528.089 440.757 526.662 439.778 526.212 438.01ZM641.197 436.514C641.197 435.736 641.811 435.099 642.562 435.099C643.313 435.099 643.927 435.736 643.927 436.514C643.927 437.291 643.313 437.928 642.562 437.928C641.811 437.928 641.197 437.291 641.197 436.514ZM600.266 435.099C600.266 434.321 601.642 433.673 603.331 433.661C605.578 433.644 605.902 433.314 604.554 432.424C601.864 430.656 604.349 429.666 609.456 430.473C614.092 431.204 614.302 433.685 609.735 433.685C608.279 433.685 607.085 434.321 607.085 435.099C607.085 435.877 605.549 436.514 603.673 436.514C601.796 436.514 600.266 435.877 600.266 435.099ZM643.961 433.738C642.858 433.013 642.414 431.946 642.971 431.369C643.534 430.791 645.024 431.392 646.293 432.707C648.761 435.264 647.282 435.918 643.961 433.738ZM651.616 431.563C651.184 430.396 649.586 429.442 648.061 429.442C646.537 429.442 645.286 428.805 645.286 428.027C645.286 427.249 646.378 426.613 647.715 426.613C650.564 426.613 656.206 430.426 656.206 432.347C656.206 434.51 652.475 433.873 651.616 431.563ZM381.956 431.192C381.956 430.603 383.218 429.306 384.76 428.304C386.824 426.967 387.313 425.676 386.608 423.383C385.778 420.661 385.931 420.502 387.819 422.128C389.946 423.961 389.668 426.972 387.034 430.502C385.596 432.43 381.956 432.925 381.956 431.192ZM517.033 430.856C517.033 430.078 517.955 429.442 519.081 429.442C520.207 429.442 521.122 430.078 521.122 430.856C521.122 431.634 520.207 432.27 519.081 432.27C517.955 432.27 517.033 431.634 517.033 430.856ZM500.66 426.884C500.66 425.476 501.427 423.307 502.366 422.063C504.965 418.61 516.976 412.823 523.852 411.709C527.23 411.161 532.144 409.593 534.772 408.226C540.851 405.061 547.659 403.517 554.415 403.777C557.344 403.889 560.518 403.305 561.479 402.48C562.434 401.655 564.954 400.795 567.07 400.565C570.584 400.176 570.999 399.528 571.761 393.222C572.74 385.089 571.392 382.891 562.889 378.748C558.084 376.403 556.184 376.185 551.083 377.369C544.127 378.99 537.496 377.133 537.496 373.574C537.496 367.628 559.778 367.156 567.616 372.943C572.16 376.297 572.251 376.285 573.49 372.095C574.122 369.944 573.013 367.857 569.157 363.956L563.97 358.705L558.305 361.546C552.419 364.492 545.026 365.3 543.74 363.137C543.331 362.447 545.06 360.42 547.585 358.629L552.175 355.37L547.989 353.16C541.511 349.736 542.029 347.85 549.928 346.094C558.84 344.114 565.397 346.035 568.082 351.421C569.117 353.496 571.346 356.466 573.041 358.022L576.118 360.845L575.225 356.071C574.736 353.449 574.338 349.789 574.338 347.938C574.338 345.239 573.621 344.579 570.675 344.579C568.662 344.579 564.328 343.236 561.052 341.591C553.574 337.837 553.579 334.178 561.064 333.535C566.023 333.105 566.12 332.993 564.124 330.035C561.604 326.304 561.428 321.949 563.799 321.949C566.148 321.949 571.722 326.057 574.787 330.046L577.284 333.294L581.009 330.547C586.122 326.776 592.076 325.302 592.071 327.807C592.059 330.654 586.912 338.892 584.563 339.829C581.481 341.055 581.771 354.751 584.939 357.727C588.812 361.357 591.257 358.723 588.709 353.667C586.372 349.017 585.98 343.742 587.879 342.522C589.71 341.35 596.165 344.715 596.165 346.848C596.165 347.844 596.831 349.082 597.638 349.6C598.651 350.248 598.821 348.569 598.184 344.161C597.599 340.13 597.911 335.91 599.032 332.693C602.285 323.369 607.352 327.884 606.226 339.098C605.765 343.672 606.158 346.029 607.574 347.249C609.218 348.663 610.008 348.209 612.01 344.697C614.757 339.876 617.794 338.15 619.824 340.254C620.746 341.208 620.672 342.876 619.597 345.316C618.715 347.32 617.999 349.247 617.999 349.6C617.999 349.954 621.167 350.078 625.034 349.883C635.345 349.365 635.237 352.411 624.846 355.405L616.475 357.821L620.814 361.334C624.732 364.516 628.913 371.9 628.913 375.648C628.913 378.937 622.094 377.004 619.159 372.884C617.498 370.557 615.019 368.288 613.648 367.834C612.283 367.386 609.388 365.471 607.221 363.579C602.956 359.86 602.393 359.972 592.759 366.496C587.174 370.274 586.662 371.258 586.639 378.2L586.617 384.241L592.207 381.282C596.95 378.778 599.163 378.477 606.874 379.302C617.697 380.463 624.818 383.215 624.818 386.233C624.818 387.889 623.316 388.425 618.681 388.425C612.55 388.425 612.539 388.431 612.539 393.481C612.539 400.205 608.808 399.616 605.038 392.291C601.58 385.578 598.673 384.635 592.89 388.342C586.645 392.338 585.229 394.383 586.15 398.043C586.816 400.677 587.902 401.16 593.254 401.178C596.734 401.184 601.113 402.127 602.99 403.264C613.881 409.87 617.794 411.102 625.068 410.23C631.364 409.47 632.859 409.794 636.374 412.681C638.922 414.768 643.881 416.612 649.733 417.649C654.852 418.551 659.936 420.06 661.028 421.003C663.275 422.93 663.758 429.442 661.66 429.442C660.909 429.442 660.295 428.534 660.295 427.42C660.295 423.437 656.143 420.955 649.472 420.955C644.609 420.955 641.578 419.983 637.631 417.16C633.07 413.895 631.131 413.412 623.845 413.713C615.195 414.066 606.266 411.167 603.946 407.242C602.279 404.425 585.252 404.69 585.252 407.531C585.252 408.709 586.588 410.778 588.22 412.127C594.84 417.62 597.53 420.973 597.53 423.719C597.53 427.084 595.455 427.585 594.311 424.491C593.879 423.325 592.315 422.37 590.831 422.37C589.352 422.37 587.765 421.733 587.299 420.955C586.833 420.172 587.862 419.518 589.608 419.482C592.565 419.429 592.514 419.294 588.778 417.196C585.144 415.157 584.478 415.162 581.06 417.255C578.996 418.516 576.38 419.176 575.236 418.722C574.099 418.268 570.948 418.987 568.247 420.319C562.764 423.012 560.125 422.063 564.203 418.863C566.728 416.883 566.7 416.807 563.424 416.854C559.79 416.913 553.323 419.276 556.338 419.441C557.322 419.494 557.748 420.178 557.282 420.955C556.821 421.733 557.214 422.37 558.158 422.37C559.488 422.37 559.471 422.765 558.067 424.138C556.622 425.552 556.133 425.552 555.632 424.138C555.291 423.165 553.215 422.37 551.032 422.37C548.842 422.37 547.05 421.733 547.05 420.955C547.05 420.178 548.313 419.541 549.86 419.541C551.401 419.541 552.288 418.905 551.822 418.121C550.582 416.046 557.168 413.884 564.726 413.884C570.647 413.884 571.403 413.518 572.182 410.283C572.666 408.303 572.694 406.075 572.251 405.333C571.079 403.364 566.58 403.682 562.167 406.046C559.847 407.289 556.486 407.802 553.693 407.33C550.685 406.823 546.197 407.643 540.891 409.658C536.398 411.367 529.301 413.642 525.115 414.709C515.179 417.249 504.794 422.052 504.59 424.203C504.504 425.14 504.527 426.701 504.652 427.674C504.772 428.646 503.924 429.442 502.764 429.442C501.609 429.442 500.66 428.293 500.66 426.884ZM580.15 413.778C583.278 412.304 583.363 411.786 583.307 395.037C583.255 381.418 582.812 377.458 581.18 376.096C579.348 374.57 579.365 374.364 581.333 374.328C582.556 374.305 584.319 372.372 585.252 370.038C586.184 367.704 587.64 365.783 588.488 365.771C589.335 365.759 589.108 365.135 587.981 364.38C585.382 362.642 583.494 362.577 584.501 364.263C585.616 366.137 582.761 373.185 581.276 372.236C580.514 371.747 580.543 369.472 581.339 366.473C583.113 359.819 581.669 357.733 577.87 361.434C575.43 363.809 574.497 364.027 572.916 362.601C571.841 361.634 572.381 362.524 574.105 364.575C576.607 367.539 577.068 369.29 576.374 373.138C575.145 379.921 574.816 415.298 575.976 415.298C576.505 415.298 578.381 414.614 580.15 413.778ZM578.427 401.154C578.427 400.376 579.041 399.74 579.792 399.74C580.543 399.74 581.157 400.376 581.157 401.154C581.157 401.932 580.543 402.569 579.792 402.569C579.041 402.569 578.427 401.932 578.427 401.154ZM578.427 379.314C578.427 377.823 581.049 377.192 581.828 378.501C582.3 379.29 581.726 379.939 580.554 379.939C579.388 379.939 578.427 379.656 578.427 379.314ZM609.297 389.085C608.876 387.942 607.91 387.01 607.153 387.01C606.289 387.01 606.38 388.389 607.403 390.706C609.036 394.418 610.736 392.969 609.303 389.085H609.297ZM617.316 384.182C613.546 382.502 611.174 382.502 611.174 384.182C611.174 384.96 613.17 385.549 615.61 385.496C619.324 385.413 619.603 385.201 617.316 384.182ZM564.101 374.281C563.64 373.503 562.531 372.878 561.633 372.89C560.66 372.902 560.825 373.456 562.059 374.281C564.675 376.037 565.147 376.037 564.101 374.281ZM553.869 372.867C555.405 371.841 554.723 371.499 551.14 371.499C548.512 371.499 545.447 372.112 544.321 372.867C542.785 373.898 543.468 374.24 547.05 374.24C549.672 374.24 552.743 373.621 553.869 372.867ZM624.818 372.224C624.818 370.61 621.548 364.38 620.7 364.38C620.183 364.38 616.867 362.1 613.347 359.306C609.462 356.236 606.09 354.574 604.787 355.093C603.144 355.747 603.894 356.884 608.029 359.984C610.986 362.212 614.655 364.439 616.179 364.94C617.703 365.441 619.642 367.427 620.49 369.36C621.786 372.313 624.818 374.322 624.818 372.224ZM556.093 359.23C558.999 357.951 560.649 356.643 559.761 356.313C558.175 355.735 549.775 359.572 549.775 360.88C549.775 361.899 550.372 361.746 556.093 359.23ZM564.453 352.712C562.924 350.313 560.865 349.423 556.099 349.099C552.311 348.84 549.775 349.27 549.775 350.16C549.775 351.009 552.709 351.651 556.554 351.651C562.019 351.651 563.185 352.064 562.548 353.773C562.036 355.158 562.588 355.894 564.124 355.894C566.262 355.894 566.29 355.6 564.453 352.712ZM594.061 351.297C592.907 347.337 591.229 345.375 590.342 346.931C589.341 348.687 591.752 354.48 593.487 354.48C594.408 354.48 594.63 353.254 594.061 351.297ZM577.887 342.322C577.483 341.232 576.362 340.389 575.401 340.448C574.031 340.536 574.025 340.713 575.362 341.273C576.3 341.668 577.164 344.638 577.284 347.879C577.483 353.301 577.545 353.395 578.063 349.04C578.37 346.441 578.29 343.418 577.887 342.322ZM605.02 350.213C604.548 349.423 603.593 349.146 602.893 349.594C601 350.802 601.352 351.651 603.752 351.651C604.924 351.651 605.492 351.009 605.02 350.213ZM616.321 345.198C615.866 344.727 614.757 345.823 613.853 347.644C612.294 350.802 612.329 350.838 614.689 348.504C616.042 347.16 616.776 345.675 616.321 345.198ZM604.219 335.739C604.446 331.62 601.904 332.97 600.948 337.478C599.805 342.882 601.79 346.754 603.138 341.739C603.656 339.8 604.145 337.101 604.219 335.739ZM571.557 339.706C569.134 337.213 560.694 335.474 560.694 337.46C560.694 338.238 562.383 339.258 564.442 339.729C566.506 340.201 568.81 340.796 569.561 341.055C572.683 342.139 573.434 341.627 571.557 339.706ZM582.579 337.478C584.017 336.682 585.866 334.726 586.685 333.129C588.021 330.547 587.913 330.388 585.695 331.72C578 336.346 575.162 341.591 582.579 337.478ZM571.756 330.724C570.965 329.192 569.35 327.554 568.161 327.082C565.801 326.145 566.438 327.931 569.987 332.215C572.575 335.333 573.661 334.419 571.756 330.724ZM447.45 426.613C447.45 425.835 448.064 425.199 448.815 425.199C449.566 425.199 450.18 425.835 450.18 426.613C450.18 427.391 449.566 428.027 448.815 428.027C448.064 428.027 447.45 427.391 447.45 426.613ZM510.214 426.613C510.214 425.835 512.364 425.199 514.986 425.199C517.613 425.199 519.763 425.835 519.763 426.613C519.763 427.391 517.613 428.027 514.986 428.027C512.364 428.027 510.214 427.391 510.214 426.613ZM584.802 427.084C583.227 425.458 583.807 423.784 585.934 423.784C587.06 423.784 587.981 424.739 587.981 425.906C587.981 428.116 586.372 428.711 584.802 427.084ZM527.947 425.199C527.947 424.421 528.561 423.784 529.312 423.784C530.063 423.784 530.677 424.421 530.677 425.199C530.677 425.976 530.063 426.613 529.312 426.613C528.561 426.613 527.947 425.976 527.947 425.199ZM545.686 425.199C545.686 424.421 546.3 423.784 547.05 423.784C547.801 423.784 548.415 424.421 548.415 425.199C548.415 425.976 547.801 426.613 547.05 426.613C546.3 426.613 545.686 425.976 545.686 425.199ZM422.352 424.026C421.175 422.046 425.241 419.087 427.761 420.089C428.961 420.567 429.689 421.751 429.382 422.723C428.688 424.892 423.45 425.865 422.352 424.026ZM437.219 423.784C437.679 423.006 438.64 422.37 439.346 422.37C440.051 422.37 440.631 423.006 440.631 423.784C440.631 424.562 439.67 425.199 438.504 425.199C437.332 425.199 436.752 424.562 437.219 423.784ZM601.022 423.902C600.579 423.165 600.801 422.193 601.511 421.739C602.222 421.28 603.166 421.509 603.604 422.246C604.042 422.983 603.82 423.961 603.11 424.415C602.399 424.874 601.46 424.639 601.022 423.902ZM628.958 423.837C627.855 423.118 627.303 422.158 627.741 421.704C628.816 420.59 633.013 422.364 633.013 423.937C633.013 425.546 631.506 425.511 628.958 423.837ZM136.375 422.476C136.375 421.751 137.45 420.873 138.764 420.513C140.555 420.03 140.39 419.83 138.081 419.706C133.839 419.476 134.191 416.712 138.462 416.712C142.392 416.712 144.565 420.602 141.687 422.488C139.19 424.132 136.375 424.12 136.375 422.476ZM531.371 422.423C529.056 421.439 528.971 421.12 530.791 420.343C532.884 419.453 540.237 421.551 540.237 423.042C540.237 424.15 534.482 423.749 531.371 422.423ZM606.795 421.144C604.526 418.227 604.605 413.053 606.914 413.565C609.292 414.096 615.28 418.245 615.269 419.352C615.263 419.842 613.756 420.967 611.925 421.851C609.206 423.154 608.256 423.024 606.795 421.144ZM610.56 418.221C610.065 417.39 609.007 416.712 608.211 416.712C607.307 416.712 607.409 417.526 608.484 418.869C610.355 421.203 612.027 420.684 610.56 418.221ZM110.447 420.955C110.447 420.178 111.061 419.541 111.812 419.541C112.563 419.541 113.023 419.064 112.836 418.48C112.648 417.897 112.955 417.26 113.518 417.066C114.599 416.689 114.61 417.714 113.541 420.602C112.756 422.706 110.447 422.971 110.447 420.955ZM407.065 420.726C405.569 418.215 411.7 413.884 416.756 413.884C422.324 413.884 423.928 417.219 419.804 420.207C416.295 422.759 408.464 423.071 407.065 420.726ZM418.798 418.127C420.401 417.054 420.049 416.754 417.177 416.736C415.158 416.724 413.122 417.349 412.661 418.127C411.586 419.93 416.102 419.93 418.798 418.127ZM633.627 421.091C632.916 420.39 631.102 419.535 629.606 419.187C626.979 418.586 626.973 418.522 629.447 417.414C632.16 416.2 635.885 417.867 636.801 420.702C637.432 422.67 635.476 422.912 633.627 421.091ZM151.378 419.541C151.378 418.763 152.646 418.127 154.188 418.127C155.735 418.127 156.622 418.763 156.155 419.541C155.689 420.319 154.427 420.955 153.346 420.955C152.265 420.955 151.378 420.319 151.378 419.541ZM158.203 419.541C158.203 418.763 158.777 418.127 159.488 418.127C160.193 418.127 161.149 418.763 161.615 419.541C162.076 420.319 161.501 420.955 160.33 420.955C159.158 420.955 158.203 420.319 158.203 419.541ZM234.611 419.541C234.611 418.763 235.219 418.127 235.97 418.127C236.721 418.127 237.335 418.763 237.335 419.541C237.335 420.319 236.721 420.955 235.97 420.955C235.219 420.955 234.611 420.319 234.611 419.541ZM92.0888 416.813C91.6566 416.088 91.9239 415.092 92.6859 414.603C94.3182 413.559 96.8035 414.885 96.8035 416.795C96.8035 418.516 93.1125 418.527 92.0888 416.813ZM227.781 416.712C227.781 415.934 228.361 415.298 229.066 415.298C229.771 415.298 230.732 415.934 231.193 416.712C231.659 417.49 231.079 418.127 229.908 418.127C228.742 418.127 227.781 417.49 227.781 416.712ZM122.72 414.62C122.72 412.51 128.988 410.012 130.455 411.532C130.893 411.98 130.881 413.33 130.438 414.532C129.386 417.372 122.72 417.449 122.72 414.62ZM134.26 410.961C132.912 408.698 134.368 407.867 140.026 407.684C143.882 407.56 145.264 408.126 145.628 409.994C146.027 412.027 145.134 412.469 140.641 412.469C137.626 412.469 134.754 411.791 134.26 410.961ZM193.214 400.211C191.365 398.296 192.406 397.341 196.057 397.606C201.414 398.001 201.858 398.16 201.858 399.74C201.858 401.307 194.652 401.702 193.214 400.211ZM312.372 395.579C312.372 394.848 312.987 393.858 313.737 393.375C314.488 392.892 315.102 393.493 315.102 394.707C315.102 395.921 314.488 396.911 313.737 396.911C312.987 396.911 312.372 396.31 312.372 395.579ZM314.625 389.704C311.798 386.28 312.776 384.276 316.189 386.504C318.668 388.124 320.175 392.668 318.23 392.668C317.593 392.668 315.972 391.336 314.625 389.704Z" fill="#F2DD82" fill-opacity="0.1"/>
</svg>
