<svg width="44" height="77" viewBox="0 0 44 77" fill="none" xmlns="http://www.w3.org/2000/svg">
<path d="M27.4575 0.0736084L28.4622 0.825566L30.4715 2.58013L31.7633 3.95872L33.1985 5.46264L34.7773 7.46786L35.782 8.84644L36.9302 10.601L38.3655 12.9822L39.2266 14.7368L39.9442 16.2407L41.0924 19.2485L42.2407 23.0083L42.3842 24.1362L42.5277 24.2616L42.8148 25.6402L43.1018 28.1467L43.2453 31.1545V34.1623L42.8148 38.6741L41.9536 42.5592L40.5183 46.9456L39.5137 49.0762L38.796 50.7054L37.6478 52.836L36.4996 54.5905L34.9208 56.8464L33.7726 58.225L32.4809 59.7289L31.3327 60.9822L30.0409 62.2354L29.0363 63.238H28.7492L28.4622 63.7393L27.8881 64.2406H27.601L27.314 64.7419L25.5916 66.1205L23.5823 67.4991L22.147 68.5017L20.2812 69.6297L17.2671 71.2589L12.9614 73.1388L11.3826 73.7654L9.22969 74.3921L7.79443 74.8934L4.34981 75.7707L1.33576 76.272H0.474609L1.04871 76.0213L4.49333 75.3947L4.92391 75.144L5.78507 75.0187V74.8934L7.50738 74.6427L8.22501 74.5174V74.2667L8.79911 74.3921V74.1414L9.22969 74.0161L9.37322 73.3895L10.5214 73.5148L11.2391 73.2641L11.3826 73.0135L12.8178 72.7628L13.1049 72.5122H13.8225V72.2615H14.1096V72.0109L13.679 72.1362L12.8178 71.8855L12.5308 71.6349L14.9707 70.6323L18.4153 68.8777L21.1423 67.2485L23.4388 65.7446L25.3046 64.2406L26.4528 63.3634L28.4622 61.6088L29.4668 60.6062L31.0456 58.9769L32.9115 56.7211L34.6338 54.3399L36.069 52.084L37.6478 49.2015L39.0831 45.8177L40.0878 42.6845L40.8054 39.802L41.3795 35.9169L41.523 33.7864V30.7785L41.236 27.2694L40.5183 23.3843L39.5137 19.8752L38.0784 16.2407L36.2126 12.6062L34.3467 9.72373L32.6244 7.46786L31.0456 5.58796L29.4668 3.95872L27.8881 2.45481L27.4575 0.574913V0.0736084Z" fill="#F6C353"/>
</svg>
