<svg width="31" height="30" viewBox="0 0 31 30" fill="none" xmlns="http://www.w3.org/2000/svg">
<path d="M27.5778 0C28.4619 0 29.3097 0.351189 29.9348 0.976311C30.5599 1.60143 30.9111 2.44928 30.9111 3.33333V26.6667C30.9111 27.5507 30.5599 28.3986 29.9348 29.0237C29.3097 29.6488 28.4619 30 27.5778 30H4.24447C3.36041 30 2.51256 29.6488 1.88744 29.0237C1.26232 28.3986 0.911133 27.5507 0.911133 26.6667V3.33333C0.911133 2.44928 1.26232 1.60143 1.88744 0.976311C2.51256 0.351189 3.36041 0 4.24447 0H27.5778ZM26.7445 25.8333V17C26.7445 15.559 26.172 14.177 25.1531 13.1581C24.1341 12.1391 22.7521 11.5667 21.3111 11.5667C19.8945 11.5667 18.2445 12.4333 17.4445 13.7333V11.8833H12.7945V25.8333H17.4445V17.6167C17.4445 16.3333 18.4778 15.2833 19.7611 15.2833C20.38 15.2833 20.9735 15.5292 21.411 15.9668C21.8486 16.4043 22.0945 16.9978 22.0945 17.6167V25.8333H26.7445ZM7.3778 9.26667C8.12041 9.26667 8.8326 8.97167 9.3577 8.44657C9.8828 7.92146 10.1778 7.20927 10.1778 6.46667C10.1778 4.91667 8.9278 3.65 7.3778 3.65C6.63077 3.65 5.91434 3.94675 5.38612 4.47498C4.85789 5.00321 4.56113 5.71964 4.56113 6.46667C4.56113 8.01667 5.8278 9.26667 7.3778 9.26667ZM9.69447 25.8333V11.8833H5.0778V25.8333H9.69447Z" fill="#1F673C"/>
</svg>
