<svg width="50" height="38" viewBox="0 0 50 38" fill="none" xmlns="http://www.w3.org/2000/svg">
<path d="M25 11.4C23.1917 11.4 21.4575 12.2007 20.1788 13.626C18.9002 15.0513 18.1818 16.9844 18.1818 19C18.1818 21.0156 18.9002 22.9487 20.1788 24.374C21.4575 25.7993 23.1917 26.6 25 26.6C26.8083 26.6 28.5425 25.7993 29.8212 24.374C31.0998 22.9487 31.8182 21.0156 31.8182 19C31.8182 16.9844 31.0998 15.0513 29.8212 13.626C28.5425 12.2007 26.8083 11.4 25 11.4ZM25 31.6667C21.9862 31.6667 19.0958 30.3321 16.9647 27.9567C14.8336 25.5812 13.6364 22.3594 13.6364 19C13.6364 15.6406 14.8336 12.4188 16.9647 10.0433C19.0958 7.66785 21.9862 6.33333 25 6.33333C28.0138 6.33333 30.9042 7.66785 33.0353 10.0433C35.1664 12.4188 36.3636 15.6406 36.3636 19C36.3636 22.3594 35.1664 25.5812 33.0353 27.9567C30.9042 30.3321 28.0138 31.6667 25 31.6667ZM25 0C13.6364 0 3.93182 7.87867 0 19C3.93182 30.1213 13.6364 38 25 38C36.3636 38 46.0682 30.1213 50 19C46.0682 7.87867 36.3636 0 25 0Z" fill="#1F673C"/>
</svg>
