<svg width="36" height="29" viewBox="0 0 36 29" fill="none" xmlns="http://www.w3.org/2000/svg">
<path d="M32.4111 25.375H28.9111V9.51562L18.4111 16.3125L7.91113 9.51562V25.375H4.41113V3.625H6.51113L18.4111 11.3281L30.3111 3.625H32.4111M32.4111 0H4.41113C2.46863 0 0.911133 1.61312 0.911133 3.625V25.375C0.911133 26.3364 1.27988 27.2584 1.93626 27.9383C2.59264 28.6181 3.48288 29 4.41113 29H32.4111C33.3394 29 34.2296 28.6181 34.886 27.9383C35.5424 27.2584 35.9111 26.3364 35.9111 25.375V3.625C35.9111 2.66359 35.5424 1.74156 34.886 1.06174C34.2296 0.381918 33.3394 0 32.4111 0Z" fill="#1F673C"/>
</svg>
