<svg width="50" height="50" viewBox="0 0 50 50" fill="none" xmlns="http://www.w3.org/2000/svg">
<path d="M42.65 7.28889C37.7889 2.45278 31.85 0 25 0C18.0861 0 12.1306 2.45556 7.29722 7.29167C2.45555 12.1278 0 18.0889 0 25C0 31.8472 2.45278 37.7861 7.28889 42.65C12.125 47.5278 18.0833 50 25 50C31.8528 50 37.7917 47.5278 42.6556 42.6583C47.5306 37.7889 50 31.8472 50 25C50 18.0889 47.5278 12.1278 42.65 7.28889ZM38.7278 38.7306C35.5694 41.8944 31.9611 43.6972 27.7778 44.2444V30.5556H33.3333V25H27.7778V21.1111C27.7778 20.892 27.821 20.6751 27.9049 20.4727C27.9888 20.2703 28.1119 20.0864 28.2669 19.9316C28.422 19.7768 28.606 19.6541 28.8086 19.5705C29.0111 19.4869 29.2281 19.4441 29.4472 19.4444H33.3333V13.8889H29.4528C27.3917 13.8889 25.6722 14.65 24.2944 16.1722C22.9148 17.6907 22.2241 19.55 22.2222 21.75V25H16.6667V30.5556H22.2222V44.25C17.9944 43.7083 14.3722 41.9028 11.2306 38.7389C7.41111 34.8944 5.55556 30.4 5.55556 25C5.55556 19.5389 7.40833 15.0333 11.2278 11.2222C15.0333 7.40833 19.5389 5.55556 25 5.55556C30.4028 5.55556 34.8944 7.41111 38.7361 11.2306C42.5778 15.0417 44.4444 19.5472 44.4444 25C44.4444 30.3917 42.575 34.8861 38.7278 38.7306Z" fill="#F2DD82"/>
</svg>
