<svg width="7" height="32" viewBox="0 0 7 32" fill="none" xmlns="http://www.w3.org/2000/svg">
<path d="M3.94853 0.245972L4.23558 0.747277L5.24026 4.00576L5.38379 5.13369L5.52731 5.25902L5.81437 6.63761L6.10142 9.14413L6.24494 12.152V15.1598L5.81437 19.6715L5.38379 21.5514L4.95321 22.1781L4.66616 23.682L4.09205 25.1859L3.805 26.1885L3.51795 26.4392L3.37442 25.9378L2.94385 26.0632L3.08737 26.5645L3.51795 26.6898V27.1911L3.2309 27.3164L2.80032 28.4444L2.65679 28.9457L1.65211 31.3269L1.22154 31.4522V30.8256L0.934484 30.7002L0.790958 31.2016L0.503906 31.0762L0.790958 30.3243L1.36506 29.1963L1.93917 27.9431L2.08269 27.6924L2.36974 25.9378L3.08737 23.682L3.805 20.7995L4.37911 16.9144L4.52263 14.7838V11.776L4.23558 8.26685L3.805 5.76033V5.13369L4.09205 5.38435L4.23558 4.38174L4.37911 4.75772H4.66616L4.95321 5.25902V4.50706L4.66616 4.00576L4.37911 4.13108L4.23558 3.37913L4.52263 3.12847L3.94853 1.12326V0.245972Z" fill="#F6CF66"/>
</svg>
