<svg width="32" height="33" viewBox="0 0 32 33" fill="none" xmlns="http://www.w3.org/2000/svg">
<path d="M6.67704 0.305115H28.78L29.9282 0.80642L30.7894 1.6837L31.3635 2.93697L31.507 12.2111V13.9657L30.9329 14.5923L29.4977 16.2215L27.7754 18.2268H27.4883L27.2012 18.7281L25.4789 20.7333L23.4696 22.8638L23.1825 23.2398H22.8955V23.4905L21.3167 24.6184L19.1638 26.1223L16.5803 27.7516L15.1451 28.6288L12.4181 30.1328L10.2652 31.2607L7.39467 32.2633L6.24647 32.514H4.66768L2.37127 32.138L1.51011 31.6367L1.07953 31.01L0.79248 29.6314V25.245L1.51011 23.6158L2.94537 21.2346L3.80652 19.2294L4.38063 17.4748L4.81121 15.3443V12.2111L4.2371 10.3312V3.43827L4.38063 2.18501L5.24178 1.05707L6.24647 0.430441L6.67704 0.305115Z" fill="#F6BE4A"/>
</svg>
