<svg width="42" height="7" viewBox="0 0 42 7" fill="none" xmlns="http://www.w3.org/2000/svg">
<path d="M39.2437 0.762329H40.1049L40.8225 1.01298H41.1096V1.26363H40.8225V1.51429L39.9614 1.76494L39.5308 2.01559L38.3826 2.14092L37.5214 2.64222L36.8038 2.5169L36.3732 2.39157V3.0182L35.7991 3.14353V3.39418L35.225 3.26885V3.51951L33.9333 3.89548L32.9286 4.02081V4.14614L31.9239 4.27146L31.4933 4.52212L28.0487 5.14875L26.9005 5.52473L24.7476 5.77538L20.0113 6.02603H18.0019L13.2655 5.77538L11.1126 5.52473L9.67739 5.27407L6.37629 4.64744L3.36225 3.89548L0.635254 3.0182V2.89287H1.49641L2.35756 3.14353V3.39418L3.79282 3.77016H5.51513V4.14614L6.51982 4.02081V4.27146L7.5245 4.39679L8.67271 4.64744V4.89809H11.9738V4.64744L10.108 4.14614L10.2515 4.52212L8.67271 4.39679V4.14614L9.96444 3.89548L10.2515 3.77016L14.7008 4.27146L16.4231 4.39679H21.303L24.8911 4.14614L28.7663 3.64483L31.3498 3.14353L34.2203 2.39157L35.3685 2.01559H36.2297L37.0908 1.76494V1.51429L39.2437 0.762329Z" fill="#F7CF65"/>
</svg>
