<svg width="22" height="45" viewBox="0 0 22 45" fill="none" xmlns="http://www.w3.org/2000/svg">
<path d="M11.5681 0.339905H11.7116L11.9986 4.72632L12.7163 3.47306L13.0033 3.09708V4.97698L12.8598 10.1154L13.4339 8.11013L14.2951 4.85165L15.0127 2.34512L15.5868 2.84643L16.3044 4.22502L17.1656 6.35556L17.8832 8.61144L18.8879 13.1232L19.749 21.1441L20.8973 32.1728L21.3278 37.9378V43.5775H18.3138L15.2997 43.4521L14.5821 43.3268L14.1515 42.0735L13.4339 44.5801H8.9846L7.83639 44.7054L6.54466 44.3294L5.82703 43.8281L4.39177 43.3268L4.67882 41.5722L5.97056 35.9326V35.5566L4.24825 35.0553L2.52594 34.3033L1.09068 33.1754L0.516573 32.2981L0.373047 31.7968V30.7942L1.09068 29.1649L2.52594 26.7837L3.96119 24.1519L5.82703 20.2668L7.69287 15.6297L8.9846 11.7446L9.84576 8.73676L10.7069 5.1023L11.281 1.71849L11.4245 0.590557L11.5681 0.339905Z" fill="#538E50"/>
</svg>
