<svg width="69" height="29" viewBox="0 0 69 29" fill="none" xmlns="http://www.w3.org/2000/svg">
<path d="M21.4963 0H25.515L30.2514 0.375979L35.9924 1.12794L39.2935 1.62924L44.7475 2.13055L48.7662 2.75718L52.2109 3.50913L55.0814 4.38642L57.3778 5.38903L59.1001 6.26631L60.3918 7.1436L60.8224 7.39425V7.6449L61.3965 7.89555L62.4012 8.77284L63.2624 9.77545L64.5541 11.53L65.7023 13.4099L66.994 15.9164L67.9987 18.1723L68.2858 19.5509L66.1329 18.5483L62.4012 16.919L57.8084 15.1645L54.3638 14.0365L49.1968 12.5326L43.8864 11.2794L38.4324 10.2768L32.1172 9.39947L26.3762 8.89816L21.7834 8.64751H11.8801L10.7319 8.77284L15.3247 9.27414L22.2139 10.2768L28.6726 11.4047L34.7007 12.6579L39.7241 13.9112L42.164 14.5378L46.4698 15.7911L50.6321 17.0444L53.9332 18.1723L56.0861 19.1749L57.3778 19.8015L58.8131 20.6788L59.9613 21.4308V21.6814L60.5354 21.9321L60.3918 22.1827L44.7475 17.9217L46.4698 18.7989L46.7569 19.1749L43.0252 18.5483L36.5665 17.5457L29.5338 16.6684L24.6539 16.1671L25.228 16.2924L31.3996 17.1697L33.2654 17.5457L34.7007 17.7963L39.0065 18.6736L42.7382 19.5509L47.0439 20.6788L51.6368 22.0574L54.6508 23.06L59.1001 24.6893L61.253 25.5666L63.6929 26.5692L64.4106 27.0705L64.8411 27.6971V28.3237L63.8365 28.1984L55.799 26.3185L50.4886 25.1906L45.8957 24.4386L40.5853 23.812L34.7007 23.436L32.1172 23.3107L24.5104 23.1854L6.4261 23.06L4.27321 22.8094L2.5509 22.3081L1.11564 21.5561H0.685059V18.7989L0.97211 16.7937L1.54621 15.7911L1.97679 15.5405H2.69442V14.4125L3.125 12.1566L3.84263 10.2768L4.56026 9.65012L5.56494 9.77545L5.70847 8.89816L6.56962 7.1436L7.71783 5.63968L9.00956 4.38642L10.3013 3.50913L12.3107 2.75718L14.32 2.3812L15.6118 2.25587L17.1905 1.12794L18.6258 0.501305L20.3481 0.125326L21.4963 0Z" fill="#538E50"/>
</svg>
